StickSans_Regular.ufo
<glyph name="exclam" format="2">
  <advance width="240"/>
  <unicode hex="0021"/>
  <outline>
    <contour>
      <point x="88" y="202" type="line"/>
      <point x="153" y="202" type="line"/>
      <point x="163" y="697" type="line"/>
      <point x="78" y="697" type="line"/>
    </contour>
    <contour>
      <point x="70" y="0" type="line"/>
      <point x="170" y="0" type="line"/>
      <point x="170" y="116" type="line"/>
      <point x="70" y="116" type="line"/>
    </contour>
  </outline>
</glyph>
<glyph name="ampersand" format="2">
  <advance width="686"/>
  <unicode hex="0026"/>
  <outline>
    <contour>
      <point x="276" y="-10" type="curve" smooth="yes"/>
      <point x="455" y="-10"/>
      <point x="588" y="113"/>
      <point x="624" y="349" type="curve"/>
      <point x="549" y="360" type="line"/>
      <point x="516" y="172"/>
      <point x="422" y="63"/>
      <point x="276" y="63" type="curve" smooth="yes"/>
      <point x="194" y="63"/>
      <point x="142" y="103"/>
      <point x="142" y="167" type="curve" smooth="yes"/>
      <point x="142" y="246"/>
      <point x="220" y="286"/>
      <point x="300" y="332" type="curve" smooth="yes"/>
      <point x="394" y="386"/>
      <point x="494" y="445"/>
      <point x="494" y="557" type="curve" smooth="yes"/>
      <point x="494" y="645"/>
      <point x="430" y="704"/>
      <point x="324" y="704" type="curve" smooth="yes"/>
      <point x="223" y="704"/>
      <point x="141" y="641"/>
      <point x="141" y="543" type="curve" smooth="yes"/>
      <point x="141" y="469"/>
      <point x="187" y="415"/>
      <point x="226" y="368" type="curve"/>
      <point x="293" y="403" type="line"/>
      <point x="261" y="443"/>
      <point x="222" y="489"/>
      <point x="222" y="541" type="curve" smooth="yes"/>
      <point x="222" y="598"/>
      <point x="265" y="637"/>
      <point x="325" y="637" type="curve" smooth="yes"/>
      <point x="388" y="637"/>
      <point x="415" y="599"/>
      <point x="415" y="556" type="curve" smooth="yes"/>
      <point x="415" y="482"/>
      <point x="344" y="439"/>
      <point x="261" y="393" type="curve" smooth="yes"/>
      <point x="165" y="340"/>
      <point x="55" y="284"/>
      <point x="55" y="163" type="curve" smooth="yes"/>
      <point x="55" y="52"/>
      <point x="148" y="-10"/>
    </contour>
    <contour>
      <point x="576" y="-34" type="line"/>
      <point x="636" y="19" type="line"/>
      <point x="332" y="371" type="line"/>
      <point x="265" y="330" type="line"/>
    </contour>
  </outline>
</glyph>
<glyph name="parenleft" format="2">
  <advance width="222"/>
  <unicode hex="0028"/>
  <outline>
    <contour>
      <point x="143" y="-204" type="curve"/>
      <point x="221" y="-204" type="line"/>
      <point x="137" y="-92"/>
      <point x="93" y="97"/>
      <point x="93" y="246" type="curve" smooth="yes"/>
      <point x="93" y="399"/>
      <point x="133" y="575"/>
      <point x="221" y="697" type="curve"/>
      <point x="144" y="697" type="line"/>
      <point x="65" y="583"/>
      <point x="25" y="409"/>
      <point x="25" y="245" type="curve" smooth="yes"/>
      <point x="25" y="97"/>
      <point x="65" y="-94"/>
    </contour>
  </outline>
</glyph>
<glyph name="plus" format="2">
  <advance width="560"/>
  <unicode hex="002B"/>
  <guideline x="1804" y="505" angle="0" name=""/>
  <guideline x="1798" y="484" angle="0" name=""/>
  <outline>
    <contour>
      <point x="246" y="9" type="line"/>
      <point x="314" y="9" type="line"/>
      <point x="314" y="214" type="line"/>
      <point x="519" y="214" type="line"/>
      <point x="519" y="281" type="line"/>
      <point x="314" y="281" type="line"/>
      <point x="314" y="486" type="line"/>
      <point x="246" y="486" type="line"/>
      <point x="246" y="281" type="line"/>
      <point x="41" y="281" type="line"/>
      <point x="41" y="214" type="line"/>
      <point x="246" y="214" type="line"/>
    </contour>
  </outline>
</glyph>
<glyph name="hyphen" format="2">
  <advance width="327"/>
  <unicode hex="002D"/>
  <outline>
    <contour>
      <point x="40" y="272" type="line"/>
      <point x="288" y="272" type="line"/>
      <point x="288" y="335" type="line"/>
      <point x="40" y="335" type="line"/>
    </contour>
  </outline>
</glyph>
<glyph name="slash" format="2">
  <advance width="418"/>
  <unicode hex="002F"/>
  <outline>
    <contour>
      <point x="-42" y="-211" type="line"/>
      <point x="23" y="-211" type="line"/>
      <point x="381" y="697" type="line"/>
      <point x="315" y="697" type="line"/>
    </contour>
  </outline>
</glyph>
<glyph name="zero" format="2">
  <advance width="560"/>
  <unicode hex="0030"/>
  <outline>
    <contour>
      <point x="282" y="-8" type="curve" smooth="yes"/>
      <point x="465" y="-8"/>
      <point x="507" y="178"/>
      <point x="507" y="350" type="curve" smooth="yes"/>
      <point x="507" y="519"/>
      <point x="466" y="706"/>
      <point x="279" y="706" type="curve" smooth="yes"/>
      <point x="85" y="706"/>
      <point x="53" y="508"/>
      <point x="53" y="351" type="curve" smooth="yes"/>
      <point x="53" y="190"/>
      <point x="87" y="-8"/>
    </contour>
    <contour>
      <point x="282" y="74" type="curve" smooth="yes"/>
      <point x="168" y="74"/>
      <point x="140" y="204"/>
      <point x="140" y="348" type="curve" smooth="yes"/>
      <point x="140" y="498"/>
      <point x="168" y="625"/>
      <point x="279" y="625" type="curve" smooth="yes"/>
      <point x="385" y="625"/>
      <point x="421" y="508"/>
      <point x="421" y="347" type="curve" smooth="yes"/>
      <point x="421" y="193"/>
      <point x="386" y="74"/>
    </contour>
  </outline>
</glyph>
<glyph name="one" format="2">
  <advance width="560"/>
  <unicode hex="0031"/>
  <outline>
    <contour>
      <point x="291" y="0" type="line"/>
      <point x="376" y="0" type="line"/>
      <point x="376" y="697" type="line"/>
      <point x="291" y="697" type="line"/>
      <point x="109" y="586" type="line"/>
      <point x="109" y="489" type="line"/>
      <point x="291" y="600" type="line"/>
      <point x="291" y="550" type="line"/>
    </contour>
  </outline>
</glyph>
<glyph name="two" format="2">
  <advance width="560"/>
  <unicode hex="0032"/>
  <outline>
    <contour>
      <point x="48" y="0" type="line"/>
      <point x="513" y="0" type="line"/>
      <point x="513" y="79" type="line"/>
      <point x="130" y="79" type="line"/>
      <point x="130" y="263"/>
      <point x="480" y="256"/>
      <point x="485" y="492" type="curve" smooth="yes"/>
      <point x="487" y="620"/>
      <point x="400" y="704"/>
      <point x="275" y="704" type="curve" smooth="yes"/>
      <point x="128" y="704"/>
      <point x="47" y="592"/>
      <point x="47" y="462" type="curve"/>
      <point x="130" y="456" type="line"/>
      <point x="132" y="551"/>
      <point x="177" y="622"/>
      <point x="272" y="622" type="curve" smooth="yes"/>
      <point x="357" y="622"/>
      <point x="402" y="568"/>
      <point x="402" y="489" type="curve" smooth="yes"/>
      <point x="402" y="311"/>
      <point x="48" y="330"/>
      <point x="48" y="70" type="curve"/>
    </contour>
  </outline>
</glyph>
<glyph name="five" format="2">
  <advance width="560"/>
  <unicode hex="0035"/>
  <outline>
    <contour>
      <point x="278" y="-8" type="curve" smooth="yes"/>
      <point x="420" y="-8"/>
      <point x="523" y="106"/>
      <point x="523" y="239" type="curve" smooth="yes"/>
      <point x="523" y="365"/>
      <point x="429" y="471"/>
      <point x="295" y="471" type="curve" smooth="yes"/>
      <point x="237" y="471"/>
      <point x="178" y="450"/>
      <point x="126" y="389" type="curve"/>
      <point x="150" y="384" type="line"/>
      <point x="199" y="654" type="line"/>
      <point x="154" y="618" type="line"/>
      <point x="491" y="618" type="line"/>
      <point x="491" y="697" type="line"/>
      <point x="123" y="697" type="line"/>
      <point x="58" y="336" type="line"/>
      <point x="141" y="313" type="line"/>
      <point x="175" y="363"/>
      <point x="224" y="391"/>
      <point x="283" y="391" type="curve" smooth="yes"/>
      <point x="380" y="391"/>
      <point x="434" y="323"/>
      <point x="434" y="239" type="curve" smooth="yes"/>
      <point x="434" y="152"/>
      <point x="376" y="73"/>
      <point x="277" y="73" type="curve" smooth="yes"/>
      <point x="190" y="73"/>
      <point x="132" y="133"/>
      <point x="119" y="210" type="curve"/>
      <point x="36" y="195" type="line"/>
      <point x="57" y="76"/>
      <point x="155" y="-8"/>
    </contour>
  </outline>
</glyph>
<glyph name="eight" format="2">
  <advance width="560"/>
  <unicode hex="0038"/>
  <outline>
    <contour>
      <point x="280" y="-8" type="curve" smooth="yes"/>
      <point x="405" y="-8"/>
      <point x="522" y="62"/>
      <point x="522" y="201" type="curve" smooth="yes"/>
      <point x="522" y="283"/>
      <point x="478" y="349"/>
      <point x="401" y="379" type="curve"/>
      <point x="453" y="404"/>
      <point x="485" y="452"/>
      <point x="485" y="517" type="curve" smooth="yes"/>
      <point x="485" y="632"/>
      <point x="393" y="705"/>
      <point x="281" y="705" type="curve" smooth="yes"/>
      <point x="177" y="705"/>
      <point x="75" y="637"/>
      <point x="75" y="520" type="curve" smooth="yes"/>
      <point x="75" y="454"/>
      <point x="108" y="404"/>
      <point x="159" y="379" type="curve"/>
      <point x="82" y="349"/>
      <point x="38" y="284"/>
      <point x="38" y="201" type="curve" smooth="yes"/>
      <point x="38" y="62"/>
      <point x="156" y="-8"/>
    </contour>
    <contour>
      <point x="280" y="72" type="curve" smooth="yes"/>
      <point x="196" y="72"/>
      <point x="122" y="118"/>
      <point x="122" y="209" type="curve" smooth="yes"/>
      <point x="122" y="293"/>
      <point x="188" y="345"/>
      <point x="280" y="345" type="curve" smooth="yes"/>
      <point x="372" y="345"/>
      <point x="437" y="292"/>
      <point x="437" y="209" type="curve" smooth="yes"/>
      <point x="437" y="118"/>
      <point x="365" y="72"/>
    </contour>
    <contour>
      <point x="282" y="403" type="curve" smooth="yes"/>
      <point x="210" y="403"/>
      <point x="160" y="447"/>
      <point x="160" y="515" type="curve" smooth="yes"/>
      <point x="160" y="584"/>
      <point x="215" y="625"/>
      <point x="281" y="625" type="curve" smooth="yes"/>
      <point x="354" y="625"/>
      <point x="401" y="579"/>
      <point x="401" y="511" type="curve" smooth="yes"/>
      <point x="401" y="447"/>
      <point x="351" y="403"/>
    </contour>
  </outline>
</glyph>
<glyph name="less" format="2">
  <advance width="560"/>
  <unicode hex="003C"/>
  <outline>
    <contour>
      <point x="521" y="7" type="line"/>
      <point x="521" y="78" type="line"/>
      <point x="72" y="260" type="line"/>
      <point x="72" y="234" type="line"/>
      <point x="521" y="415" type="line"/>
      <point x="521" y="487" type="line"/>
      <point x="24" y="283" type="line"/>
      <point x="24" y="210" type="line"/>
    </contour>
  </outline>
</glyph>
<glyph name="equal" format="2">
  <advance width="560"/>
  <unicode hex="003D"/>
  <outline>
    <contour>
      <point x="82" y="317" type="line"/>
      <point x="479" y="317" type="line"/>
      <point x="479" y="384" type="line"/>
      <point x="82" y="384" type="line"/>
    </contour>
    <contour>
      <point x="82" y="110" type="line"/>
      <point x="479" y="110" type="line"/>
      <point x="479" y="177" type="line"/>
      <point x="82" y="177" type="line"/>
    </contour>
  </outline>
</glyph>
<glyph name="A" format="2">
  <advance width="637"/>
  <unicode hex="0041"/>
  <anchor x="319" y="0" name="bottom"/>
  <anchor x="608" y="0" name="ogonek"/>
  <anchor x="319" y="697" name="top"/>
  <outline>
    <contour>
      <point x="17" y="0" type="line"/>
      <point x="114" y="0" type="line"/>
      <point x="319" y="571" type="line"/>
      <point x="523" y="0" type="line"/>
      <point x="619" y="0" type="line"/>
      <point x="353" y="697" type="line"/>
      <point x="283" y="697" type="line"/>
    </contour>
    <contour>
      <point x="165" y="164" type="line"/>
      <point x="473" y="164" type="line"/>
      <point x="444" y="243" type="line"/>
      <point x="192" y="243" type="line"/>
    </contour>
  </outline>
</glyph>
<glyph name="D" format="2">
  <advance width="682"/>
  <unicode hex="0044"/>
  <anchor x="331" y="0" name="bottom"/>
  <anchor x="147" y="349" name="center"/>
  <anchor x="331" y="697" name="top"/>
  <outline>
    <contour>
      <point x="79" y="0" type="line"/>
      <point x="271" y="0" type="line" smooth="yes"/>
      <point x="503" y="0"/>
      <point x="631" y="122"/>
      <point x="631" y="343" type="curve" smooth="yes"/>
      <point x="631" y="568"/>
      <point x="500" y="697"/>
      <point x="272" y="697" type="curve" smooth="yes"/>
      <point x="79" y="697" type="line"/>
    </contour>
    <contour>
      <point x="167" y="81" type="line"/>
      <point x="167" y="616" type="line"/>
      <point x="271" y="616" type="line" smooth="yes"/>
      <point x="441" y="616"/>
      <point x="542" y="535"/>
      <point x="542" y="346" type="curve" smooth="yes"/>
      <point x="542" y="156"/>
      <point x="441" y="81"/>
      <point x="263" y="81" type="curve" smooth="yes"/>
    </contour>
  </outline>
</glyph>
<glyph name="G" format="2">
  <advance width="731"/>
  <unicode hex="0047"/>
  <anchor x="372" y="0" name="bottom"/>
  <anchor x="372" y="697" name="top"/>
  <outline>
    <contour>
      <point x="367" y="-12" type="curve" smooth="yes"/>
      <point x="463" y="-12"/>
      <point x="664" y="49"/>
      <point x="664" y="286" type="curve"/>
      <point x="665" y="366" type="line"/>
      <point x="411" y="366" type="line"/>
      <point x="411" y="287" type="line"/>
      <point x="607" y="287" type="line"/>
      <point x="587" y="347" type="line"/>
      <point x="587" y="296" type="line" smooth="yes"/>
      <point x="587" y="118"/>
      <point x="469" y="72"/>
      <point x="372" y="72" type="curve" smooth="yes"/>
      <point x="229" y="72"/>
      <point x="138" y="179"/>
      <point x="138" y="349" type="curve" smooth="yes"/>
      <point x="138" y="518"/>
      <point x="229" y="625"/>
      <point x="372" y="625" type="curve" smooth="yes"/>
      <point x="474" y="625"/>
      <point x="548" y="572"/>
      <point x="583" y="482" type="curve"/>
      <point x="665" y="513" type="line"/>
      <point x="619" y="635"/>
      <point x="512" y="709"/>
      <point x="372" y="709" type="curve" smooth="yes"/>
      <point x="179" y="709"/>
      <point x="50" y="565"/>
      <point x="50" y="349" type="curve" smooth="yes"/>
      <point x="50" y="132"/>
      <point x="179" y="-12"/>
    </contour>
  </outline>
</glyph>
<glyph name="H" format="2">
  <advance width="678"/>
  <unicode hex="0048"/>
  <anchor x="339" y="0" name="bottom"/>
  <anchor x="339" y="545" name="center"/>
  <anchor x="339" y="697" name="top"/>
  <anchor x="10" y="697" name="topleft"/>
  <outline>
    <contour>
      <point x="79" y="0" type="line"/>
      <point x="167" y="0" type="line"/>
      <point x="167" y="316" type="line"/>
      <point x="511" y="316" type="line"/>
      <point x="511" y="0" type="line"/>
      <point x="599" y="0" type="line"/>
      <point x="599" y="697" type="line"/>
      <point x="511" y="697" type="line"/>
      <point x="511" y="398" type="line"/>
      <point x="167" y="398" type="line"/>
      <point x="167" y="697" type="line"/>
      <point x="79" y="697" type="line"/>
    </contour>
  </outline>
</glyph>
<glyph name="J" format="2">
  <advance width="552"/>
  <unicode hex="004A"/>
  <anchor x="284" y="0" name="bottom"/>
  <anchor x="298" y="697" name="top"/>
  <outline>
    <contour>
      <point x="256" y="-12" type="curve" smooth="yes"/>
      <point x="397" y="-12"/>
      <point x="480" y="84"/>
      <point x="480" y="247" type="curve" smooth="yes"/>
      <point x="480" y="697" type="line"/>
      <point x="392" y="697" type="line"/>
      <point x="392" y="618" type="line"/>
      <point x="392" y="618" type="line"/>
      <point x="392" y="252" type="line" smooth="yes"/>
      <point x="392" y="135"/>
      <point x="351" y="70"/>
      <point x="256" y="70" type="curve" smooth="yes"/>
      <point x="173" y="70"/>
      <point x="122" y="117"/>
      <point x="115" y="218" type="curve"/>
      <point x="28" y="209" type="line"/>
      <point x="37" y="71"/>
      <point x="126" y="-12"/>
    </contour>
  </outline>
</glyph>
<glyph name="S" format="2">
  <advance width="564"/>
  <unicode hex="0053"/>
  <anchor x="282" y="0" name="bottom"/>
  <anchor x="282" y="697" name="top"/>
  <outline>
    <contour>
      <point x="292" y="-11" type="curve" smooth="yes"/>
      <point x="425" y="-11"/>
      <point x="519" y="67"/>
      <point x="519" y="185" type="curve" smooth="yes"/>
      <point x="519" y="295"/>
      <point x="442" y="346"/>
      <point x="321" y="392" type="curve" smooth="yes"/>
      <point x="224" y="428"/>
      <point x="169" y="464"/>
      <point x="169" y="529" type="curve" smooth="yes"/>
      <point x="169" y="588"/>
      <point x="217" y="631"/>
      <point x="286" y="631" type="curve" smooth="yes"/>
      <point x="343" y="631"/>
      <point x="387" y="601"/>
      <point x="418" y="547" type="curve"/>
      <point x="488" y="590" type="line"/>
      <point x="446" y="668"/>
      <point x="377" y="709"/>
      <point x="289" y="709" type="curve" smooth="yes"/>
      <point x="164" y="709"/>
      <point x="81" y="632"/>
      <point x="81" y="527" type="curve" smooth="yes"/>
      <point x="81" y="421"/>
      <point x="158" y="363"/>
      <point x="274" y="319" type="curve" smooth="yes"/>
      <point x="367" y="283"/>
      <point x="432" y="254"/>
      <point x="432" y="180" type="curve" smooth="yes"/>
      <point x="432" y="109"/>
      <point x="372" y="68"/>
      <point x="295" y="68" type="curve" smooth="yes"/>
      <point x="205" y="68"/>
      <point x="139" y="117"/>
      <point x="124" y="211" type="curve"/>
      <point x="38" y="190" type="line"/>
      <point x="58" y="68"/>
      <point x="152" y="-11"/>
    </contour>
  </outline>
</glyph>
<glyph name="T" format="2">
  <advance width="587"/>
  <unicode hex="0054"/>
  <anchor x="293" y="0" name="bottom"/>
  <anchor x="293" y="349" name="center"/>
  <anchor x="293" y="697" name="top"/>
  <outline>
    <contour>
      <point x="249" y="0" type="line"/>
      <point x="338" y="0" type="line"/>
      <point x="338" y="618" type="line"/>
      <point x="571" y="618" type="line"/>
      <point x="571" y="697" type="line"/>
      <point x="15" y="697" type="line"/>
      <point x="15" y="618" type="line"/>
      <point x="249" y="618" type="line"/>
    </contour>
  </outline>
</glyph>
<glyph name="U" format="2">
  <advance width="656"/>
  <unicode hex="0055"/>
  <anchor x="328" y="0" name="bottom"/>
  <anchor x="403" y="0" name="ogonek"/>
  <anchor x="328" y="697" name="top"/>
  <anchor x="638" y="493" name="topright"/>
  <outline>
    <contour>
      <point x="327" y="-12" type="curve" smooth="yes"/>
      <point x="494" y="-12"/>
      <point x="583" y="81"/>
      <point x="583" y="257" type="curve" smooth="yes"/>
      <point x="583" y="697" type="line"/>
      <point x="496" y="697" type="line"/>
      <point x="496" y="263" type="line" smooth="yes"/>
      <point x="496" y="137"/>
      <point x="447" y="69"/>
      <point x="327" y="69" type="curve" smooth="yes"/>
      <point x="206" y="69"/>
      <point x="160" y="136"/>
      <point x="160" y="262" type="curve" smooth="yes"/>
      <point x="160" y="697" type="line"/>
      <point x="72" y="697" type="line"/>
      <point x="72" y="252" type="line" smooth="yes"/>
      <point x="72" y="79"/>
      <point x="161" y="-12"/>
    </contour>
  </outline>
</glyph>
<glyph name="Y" format="2">
  <advance width="602"/>
  <unicode hex="0059"/>
  <anchor x="302" y="0" name="bottom"/>
  <anchor x="302" y="697" name="top"/>
  <anchor x="22" y="697" name="topleft"/>
  <outline>
    <contour>
      <point x="258" y="0" type="line"/>
      <point x="346" y="0" type="line"/>
      <point x="346" y="269" type="line"/>
      <point x="590" y="697" type="line"/>
      <point x="490" y="697" type="line"/>
      <point x="299" y="357" type="line"/>
      <point x="112" y="697" type="line"/>
      <point x="12" y="697" type="line"/>
      <point x="258" y="269" type="line"/>
    </contour>
  </outline>
</glyph>
<glyph name="bracketleft" format="2">
  <advance width="258"/>
  <unicode hex="005B"/>
  <outline>
    <contour>
      <point x="58" y="-247" type="line"/>
      <point x="253" y="-247" type="line"/>
      <point x="253" y="-190" type="line"/>
      <point x="128" y="-190" type="line"/>
      <point x="128" y="683" type="line"/>
      <point x="253" y="683" type="line"/>
      <point x="253" y="740" type="line"/>
      <point x="58" y="740" type="line"/>
    </contour>
  </outline>
</glyph>
<glyph name="asciicircum" format="2">
  <advance width="552"/>
  <unicode hex="005E"/>
  <outline>
    <contour>
      <point x="30" y="219" type="line"/>
      <point x="120" y="219" type="line"/>
      <point x="288" y="656" type="line"/>
      <point x="263" y="656" type="line"/>
      <point x="432" y="219" type="line"/>
      <point x="522" y="219" type="line"/>
      <point x="329" y="697" type="line"/>
      <point x="223" y="697" type="line"/>
    </contour>
  </outline>
</glyph>
<glyph name="underscore" format="2">
  <advance width="405"/>
  <unicode hex="005F"/>
  <outline>
    <contour>
      <point x="0" y="-65" type="line"/>
      <point x="405" y="-65" type="line"/>
      <point x="405" y="0" type="line"/>
      <point x="0" y="0" type="line"/>
    </contour>
  </outline>
</glyph>
<glyph name="grave" format="2">
  <advance width="292"/>
  <unicode hex="0060"/>
  <outline>
    <contour>
      <point x="179" y="556" type="line"/>
      <point x="243" y="556" type="line"/>
      <point x="139" y="697" type="line"/>
      <point x="49" y="697" type="line"/>
    </contour>
  </outline>
</glyph>
<glyph name="d" format="2">
  <advance width="587"/>
  <unicode hex="0064"/>
  <anchor x="294" y="0" name="bottom"/>
  <anchor x="438" y="608" name="center"/>
  <anchor x="473" y="697" name="top"/>
  <anchor x="637" y="493" name="topright"/>
  <outline>
    <contour>
      <point x="273" y="-8" type="curve" smooth="yes"/>
      <point x="367" y="-8"/>
      <point x="433" y="52"/>
      <point x="459" y="138" type="curve"/>
      <point x="431" y="147" type="line"/>
      <point x="431" y="0" type="line"/>
      <point x="515" y="0" type="line"/>
      <point x="515" y="697" type="line"/>
      <point x="431" y="697" type="line"/>
      <point x="431" y="346" type="line"/>
      <point x="455" y="362" type="line"/>
      <point x="434" y="439"/>
      <point x="367" y="501"/>
      <point x="273" y="501" type="curve" smooth="yes"/>
      <point x="149" y="501"/>
      <point x="49" y="402"/>
      <point x="49" y="247" type="curve" smooth="yes"/>
      <point x="49" y="102"/>
      <point x="139" y="-8"/>
    </contour>
    <contour>
      <point x="287" y="70" type="curve" smooth="yes"/>
      <point x="197" y="70"/>
      <point x="134" y="143"/>
      <point x="134" y="247" type="curve" smooth="yes"/>
      <point x="134" y="351"/>
      <point x="197" y="424"/>
      <point x="287" y="424" type="curve" smooth="yes"/>
      <point x="376" y="424"/>
      <point x="438" y="351"/>
      <point x="438" y="247" type="curve" smooth="yes"/>
      <point x="438" y="143"/>
      <point x="376" y="70"/>
    </contour>
  </outline>
</glyph>
<glyph name="e" format="2">
  <advance width="540"/>
  <unicode hex="0065"/>
  <anchor x="280" y="0" name="bottom"/>
  <anchor x="347" y="0" name="ogonek"/>
  <anchor x="273" y="493" name="top"/>
  <outline>
    <contour>
      <point x="280" y="-8" type="curve" smooth="yes"/>
      <point x="361" y="-8"/>
      <point x="420" y="18"/>
      <point x="475" y="76" type="curve"/>
      <point x="416" y="128" type="line"/>
      <point x="378" y="87"/>
      <point x="338" y="69"/>
      <point x="281" y="69" type="curve" smooth="yes"/>
      <point x="191" y="69"/>
      <point x="137" y="125"/>
      <point x="133" y="221" type="curve"/>
      <point x="488" y="221" type="line"/>
      <point x="490" y="235"/>
      <point x="491" y="259"/>
      <point x="491" y="265" type="curve" smooth="yes"/>
      <point x="491" y="385"/>
      <point x="424" y="501"/>
      <point x="272" y="501" type="curve" smooth="yes"/>
      <point x="123" y="501"/>
      <point x="49" y="380"/>
      <point x="49" y="243" type="curve" smooth="yes"/>
      <point x="49" y="106"/>
      <point x="125" y="-8"/>
    </contour>
    <contour>
      <point x="407" y="264" type="curve"/>
      <point x="435" y="284" type="line"/>
      <point x="132" y="284" type="line"/>
      <point x="138" y="364"/>
      <point x="187" y="430"/>
      <point x="274" y="430" type="curve" smooth="yes"/>
      <point x="366" y="430"/>
      <point x="410" y="361"/>
      <point x="410" y="296" type="curve" smooth="yes"/>
      <point x="410" y="285"/>
      <point x="409" y="274"/>
    </contour>
  </outline>
</glyph>
<glyph name="m" format="2">
  <advance width="828"/>
  <unicode hex="006D"/>
  <anchor x="414" y="0" name="bottom"/>
  <anchor x="414" y="493" name="top"/>
  <outline>
    <contour>
      <point x="72" y="0" type="line"/>
      <point x="157" y="0" type="line"/>
      <point x="157" y="265" type="line" smooth="yes"/>
      <point x="157" y="372"/>
      <point x="200" y="428"/>
      <point x="273" y="428" type="curve" smooth="yes"/>
      <point x="339" y="428"/>
      <point x="375" y="382"/>
      <point x="375" y="287" type="curve" smooth="yes"/>
      <point x="375" y="0" type="line"/>
      <point x="460" y="0" type="line"/>
      <point x="460" y="265" type="line" smooth="yes"/>
      <point x="460" y="373"/>
      <point x="502" y="428"/>
      <point x="574" y="428" type="curve" smooth="yes"/>
      <point x="649" y="428"/>
      <point x="678" y="372"/>
      <point x="678" y="280" type="curve" smooth="yes"/>
      <point x="678" y="0" type="line"/>
      <point x="762" y="0" type="line"/>
      <point x="762" y="300" type="line" smooth="yes"/>
      <point x="762" y="409"/>
      <point x="715" y="501"/>
      <point x="593" y="501" type="curve" smooth="yes"/>
      <point x="497" y="501"/>
      <point x="444" y="443"/>
      <point x="415" y="342" type="curve"/>
      <point x="463" y="345" type="line"/>
      <point x="447" y="450"/>
      <point x="388" y="501"/>
      <point x="298" y="501" type="curve" smooth="yes"/>
      <point x="226" y="501"/>
      <point x="164" y="460"/>
      <point x="140" y="366" type="curve"/>
      <point x="157" y="366" type="line"/>
      <point x="157" y="493" type="line"/>
      <point x="72" y="493" type="line"/>
    </contour>
  </outline>
</glyph>
<glyph name="r" format="2">
  <advance width="407"/>
  <unicode hex="0072"/>
  <anchor x="190" y="0" name="bottom"/>
  <anchor x="190" y="493" name="top"/>
  <outline>
    <contour>
      <point x="72" y="0" type="line"/>
      <point x="157" y="0" type="line"/>
      <point x="157" y="231" type="line" smooth="yes"/>
      <point x="157" y="283"/>
      <point x="160" y="310"/>
      <point x="166" y="329" type="curve" smooth="yes"/>
      <point x="186" y="392"/>
      <point x="237" y="417"/>
      <point x="285" y="417" type="curve" smooth="yes"/>
      <point x="305" y="417"/>
      <point x="329" y="411"/>
      <point x="345" y="403" type="curve"/>
      <point x="387" y="479" type="line"/>
      <point x="358" y="495"/>
      <point x="331" y="501"/>
      <point x="300" y="501" type="curve" smooth="yes"/>
      <point x="231" y="501"/>
      <point x="149" y="444"/>
      <point x="135" y="356" type="curve"/>
      <point x="157" y="361" type="line"/>
      <point x="157" y="493" type="line"/>
      <point x="72" y="493" type="line"/>
    </contour>
  </outline>
</glyph>
<glyph name="w" format="2">
  <advance width="748"/>
  <unicode hex="0077"/>
  <anchor x="374" y="0" name="bottom"/>
  <anchor x="374" y="493" name="top"/>
  <outline>
    <contour>
      <point x="174" y="0" type="line"/>
      <point x="253" y="0" type="line"/>
      <point x="374" y="375" type="line"/>
      <point x="495" y="0" type="line"/>
      <point x="573" y="0" type="line"/>
      <point x="720" y="493" type="line"/>
      <point x="630" y="493" type="line"/>
      <point x="529" y="130" type="line"/>
      <point x="411" y="493" type="line"/>
      <point x="336" y="493" type="line"/>
      <point x="218" y="128" type="line"/>
      <point x="118" y="493" type="line"/>
      <point x="28" y="493" type="line"/>
    </contour>
  </outline>
</glyph>
<glyph name="y" format="2">
  <advance width="521"/>
  <unicode hex="0079"/>
  <guideline x="382" y="-204" angle="0" name=""/>
  <anchor x="418" y="-30" name="bottom"/>
  <anchor x="261" y="493" name="top"/>
  <outline>
    <contour>
      <point x="121" y="-203" type="line"/>
      <point x="213" y="-203" type="line"/>
      <point x="497" y="493" type="line"/>
      <point x="405" y="493" type="line"/>
      <point x="260" y="109" type="line"/>
      <point x="116" y="493" type="line"/>
      <point x="23" y="493" type="line"/>
      <point x="215" y="24" type="line"/>
    </contour>
  </outline>
</glyph>
<glyph name="bar" format="2">
  <advance width="258"/>
  <unicode hex="007C"/>
  <outline>
    <contour>
      <point x="97" y="-254" type="line"/>
      <point x="161" y="-254" type="line"/>
      <point x="161" y="746" type="line"/>
      <point x="97" y="746" type="line"/>
    </contour>
  </outline>
</glyph>
<glyph name="sterling" format="2">
  <advance width="560"/>
  <unicode hex="00A3"/>
  <guideline x="117" y="503" angle="90"/>
  <guideline x="189" y="502" angle="90"/>
  <guideline x="189" y="72" angle="0"/>
  <outline>
    <contour>
      <point x="50" y="0" type="line"/>
      <point x="516" y="0" type="line"/>
      <point x="516" y="72" type="line"/>
      <point x="189" y="72" type="line"/>
      <point x="189" y="321" type="line"/>
      <point x="417" y="321" type="line"/>
      <point x="417" y="393" type="line"/>
      <point x="189" y="393" type="line"/>
      <point x="189" y="502" type="line"/>
      <point x="189" y="581"/>
      <point x="243" y="636"/>
      <point x="322" y="636" type="curve" smooth="yes"/>
      <point x="382" y="636"/>
      <point x="435" y="601"/>
      <point x="453" y="534" type="curve"/>
      <point x="519" y="559" type="line"/>
      <point x="494" y="651"/>
      <point x="419" y="708"/>
      <point x="320" y="708" type="curve" smooth="yes"/>
      <point x="196" y="708"/>
      <point x="118" y="618"/>
      <point x="118" y="504" type="curve"/>
      <point x="118" y="393" type="line"/>
      <point x="53" y="393" type="line"/>
      <point x="53" y="321" type="line"/>
      <point x="117" y="321" type="line"/>
      <point x="117" y="72" type="line"/>
      <point x="50" y="72" type="line"/>
    </contour>
  </outline>
</glyph>
<glyph name="dieresis" format="2">
  <advance width="383"/>
  <unicode hex="00A8"/>
  <outline>
    <contour>
      <point x="304" y="596" type="curve" smooth="yes"/>
      <point x="335" y="596"/>
      <point x="359" y="621"/>
      <point x="359" y="651" type="curve" smooth="yes"/>
      <point x="359" y="681"/>
      <point x="335" y="705"/>
      <point x="304" y="705" type="curve" smooth="yes"/>
      <point x="274" y="705"/>
      <point x="250" y="681"/>
      <point x="250" y="651" type="curve" smooth="yes"/>
      <point x="250" y="621"/>
      <point x="275" y="596"/>
    </contour>
    <contour>
      <point x="103" y="596" type="curve" smooth="yes"/>
      <point x="133" y="596"/>
      <point x="158" y="621"/>
      <point x="158" y="651" type="curve" smooth="yes"/>
      <point x="158" y="681"/>
      <point x="133" y="705"/>
      <point x="103" y="705" type="curve" smooth="yes"/>
      <point x="72" y="705"/>
      <point x="49" y="681"/>
      <point x="49" y="651" type="curve" smooth="yes"/>
      <point x="49" y="621"/>
      <point x="74" y="596"/>
    </contour>
  </outline>
</glyph>
<glyph name="copyright" format="2">
  <advance width="827"/>
  <unicode hex="00A9"/>
  <outline>
    <contour>
      <point x="414" y="-5" type="curve" smooth="yes"/>
      <point x="609" y="-5"/>
      <point x="767" y="153"/>
      <point x="767" y="349" type="curve" smooth="yes"/>
      <point x="767" y="544"/>
      <point x="609" y="702"/>
      <point x="414" y="702" type="curve" smooth="yes"/>
      <point x="218" y="702"/>
      <point x="60" y="544"/>
      <point x="60" y="349" type="curve" smooth="yes"/>
      <point x="60" y="153"/>
      <point x="218" y="-5"/>
    </contour>
    <contour>
      <point x="415" y="124" type="curve" smooth="yes"/>
      <point x="497" y="124"/>
      <point x="561" y="169"/>
      <point x="588" y="247" type="curve"/>
      <point x="524" y="271" type="line"/>
      <point x="509" y="221"/>
      <point x="468" y="189"/>
      <point x="414" y="189" type="curve" smooth="yes"/>
      <point x="327" y="189"/>
      <point x="287" y="265"/>
      <point x="287" y="347" type="curve" smooth="yes"/>
      <point x="287" y="429"/>
      <point x="327" y="509"/>
      <point x="414" y="509" type="curve" smooth="yes"/>
      <point x="467" y="509"/>
      <point x="508" y="474"/>
      <point x="527" y="425" type="curve"/>
      <point x="593" y="451" type="line"/>
      <point x="561" y="529"/>
      <point x="497" y="573"/>
      <point x="414" y="573" type="curve" smooth="yes"/>
      <point x="282" y="573"/>
      <point x="217" y="462"/>
      <point x="217" y="347" type="curve" smooth="yes"/>
      <point x="217" y="227"/>
      <point x="287" y="124"/>
    </contour>
    <contour>
      <point x="414" y="37" type="curve" smooth="yes"/>
      <point x="242" y="37"/>
      <point x="102" y="177"/>
      <point x="102" y="349" type="curve" smooth="yes"/>
      <point x="102" y="521"/>
      <point x="242" y="661"/>
      <point x="414" y="661" type="curve" smooth="yes"/>
      <point x="586" y="661"/>
      <point x="726" y="521"/>
      <point x="726" y="349" type="curve" smooth="yes"/>
      <point x="726" y="177"/>
      <point x="586" y="37"/>
    </contour>
  </outline>
</glyph>
<glyph name="guillemetleft" format="2">
  <advance width="469"/>
  <unicode hex="00AB"/>
  <outline>
    <contour>
      <point x="454" y="60" type="line"/>
      <point x="454" y="151" type="line"/>
      <point x="327" y="253" type="line"/>
      <point x="454" y="354" type="line"/>
      <point x="454" y="445" type="line"/>
      <point x="226" y="253" type="line"/>
    </contour>
    <contour>
      <point x="231" y="60" type="line"/>
      <point x="231" y="151" type="line"/>
      <point x="103" y="253" type="line"/>
      <point x="231" y="354" type="line"/>
      <point x="231" y="445" type="line"/>
      <point x="3" y="253" type="line"/>
    </contour>
  </outline>
</glyph>
<glyph name="registered" format="2">
  <advance width="626"/>
  <unicode hex="00AE"/>
  <outline>
    <contour>
      <point x="313" y="191" type="curve" smooth="yes"/>
      <point x="455" y="191"/>
      <point x="569" y="298"/>
      <point x="569" y="448" type="curve" smooth="yes"/>
      <point x="569" y="598"/>
      <point x="454" y="705"/>
      <point x="313" y="705" type="curve" smooth="yes"/>
      <point x="171" y="705"/>
      <point x="56" y="598"/>
      <point x="56" y="448" type="curve" smooth="yes"/>
      <point x="56" y="297"/>
      <point x="171" y="191"/>
    </contour>
    <contour>
      <point x="313" y="231" type="curve" smooth="yes"/>
      <point x="193" y="231"/>
      <point x="96" y="321"/>
      <point x="96" y="448" type="curve" smooth="yes"/>
      <point x="96" y="576"/>
      <point x="193" y="666"/>
      <point x="313" y="666" type="curve" smooth="yes"/>
      <point x="432" y="666"/>
      <point x="529" y="576"/>
      <point x="529" y="448" type="curve" smooth="yes"/>
      <point x="529" y="321"/>
      <point x="433" y="231"/>
    </contour>
    <contour>
      <point x="235" y="304" type="line"/>
      <point x="274" y="304" type="line"/>
      <point x="274" y="429" type="line"/>
      <point x="316" y="429" type="line"/>
      <point x="387" y="304" type="line"/>
      <point x="430" y="304" type="line"/>
      <point x="354" y="434" type="line"/>
      <point x="394" y="442"/>
      <point x="419" y="468"/>
      <point x="419" y="511" type="curve" smooth="yes"/>
      <point x="419" y="562"/>
      <point x="388" y="593"/>
      <point x="322" y="593" type="curve" smooth="yes"/>
      <point x="235" y="593" type="line"/>
    </contour>
    <contour>
      <point x="275" y="464" type="line"/>
      <point x="275" y="558" type="line"/>
      <point x="318" y="558" type="line" smooth="yes"/>
      <point x="354" y="558"/>
      <point x="380" y="546"/>
      <point x="380" y="511" type="curve" smooth="yes"/>
      <point x="380" y="476"/>
      <point x="354" y="464"/>
      <point x="318" y="464" type="curve" smooth="yes"/>
    </contour>
  </outline>
</glyph>
<glyph name="threesuperior" format="2">
  <advance width="413"/>
  <unicode hex="00B3"/>
  <outline>
    <contour>
      <point x="204" y="482" type="curve" smooth="yes"/>
      <point x="284" y="482"/>
      <point x="351" y="526"/>
      <point x="351" y="605" type="curve" smooth="yes"/>
      <point x="351" y="662"/>
      <point x="310" y="698"/>
      <point x="259" y="709" type="curve"/>
      <point x="297" y="722"/>
      <point x="329" y="750"/>
      <point x="329" y="797" type="curve" smooth="yes"/>
      <point x="329" y="863"/>
      <point x="271" y="905"/>
      <point x="203" y="905" type="curve" smooth="yes"/>
      <point x="133" y="905"/>
      <point x="76" y="861"/>
      <point x="76" y="789" type="curve"/>
      <point x="121" y="786" type="line"/>
      <point x="122" y="832"/>
      <point x="157" y="861"/>
      <point x="205" y="861" type="curve" smooth="yes"/>
      <point x="247" y="861"/>
      <point x="283" y="835"/>
      <point x="283" y="788" type="curve" smooth="yes"/>
      <point x="283" y="740"/>
      <point x="244" y="721"/>
      <point x="184" y="721" type="curve"/>
      <point x="184" y="688" type="line"/>
      <point x="235" y="688"/>
      <point x="306" y="677"/>
      <point x="306" y="609" type="curve" smooth="yes"/>
      <point x="306" y="554"/>
      <point x="259" y="525"/>
      <point x="205" y="525" type="curve" smooth="yes"/>
      <point x="146" y="525"/>
      <point x="102" y="558"/>
      <point x="102" y="615" type="curve"/>
      <point x="57" y="611" type="line"/>
      <point x="57" y="528"/>
      <point x="122" y="482"/>
    </contour>
  </outline>
</glyph>
<glyph name="paragraph" format="2">
  <advance width="573"/>
  <unicode hex="00B6"/>
  <outline>
    <contour>
      <point x="268" y="-121" type="line"/>
      <point x="318" y="-121" type="line"/>
      <point x="318" y="697" type="line"/>
      <point x="268" y="697" type="line" smooth="yes"/>
      <point x="153" y="697"/>
      <point x="45" y="625"/>
      <point x="45" y="502" type="curve" smooth="yes"/>
      <point x="45" y="379"/>
      <point x="153" y="307"/>
      <point x="268" y="307" type="curve"/>
    </contour>
    <contour>
      <point x="427" y="-121" type="line"/>
      <point x="476" y="-121" type="line"/>
      <point x="476" y="697" type="line"/>
      <point x="427" y="697" type="line"/>
    </contour>
  </outline>
</glyph>
<glyph name="cedilla" format="2">
  <advance width="299"/>
  <unicode hex="00B8"/>
  <outline>
    <contour>
      <point x="144" y="-257" type="curve" smooth="yes"/>
      <point x="207" y="-257"/>
      <point x="250" y="-213"/>
      <point x="250" y="-153" type="curve" smooth="yes"/>
      <point x="250" y="-109"/>
      <point x="223" y="-78"/>
      <point x="173" y="-65" type="curve" smooth="yes"/>
      <point x="160" y="-62"/>
      <point x="144" y="-61"/>
      <point x="141" y="-60" type="curve"/>
      <point x="181" y="0" type="line"/>
      <point x="129" y="0" type="line"/>
      <point x="73" y="-95" type="line"/>
      <point x="83" y="-95"/>
      <point x="104" y="-95"/>
      <point x="112" y="-96" type="curve"/>
      <point x="164" y="-98"/>
      <point x="199" y="-120"/>
      <point x="199" y="-157" type="curve" smooth="yes"/>
      <point x="199" y="-187"/>
      <point x="179" y="-207"/>
      <point x="147" y="-207" type="curve" smooth="yes"/>
      <point x="125" y="-207"/>
      <point x="104" y="-192"/>
      <point x="97" y="-172" type="curve"/>
      <point x="49" y="-193" type="line"/>
      <point x="64" y="-230"/>
      <point x="104" y="-257"/>
    </contour>
  </outline>
</glyph>
<glyph name="ordmasculine" format="2">
  <advance width="526"/>
  <unicode hex="00BA"/>
  <outline>
    <contour>
      <point x="263" y="353" type="curve" smooth="yes"/>
      <point x="362" y="353"/>
      <point x="433" y="431"/>
      <point x="433" y="529" type="curve" smooth="yes"/>
      <point x="433" y="627"/>
      <point x="361" y="705"/>
      <point x="263" y="705" type="curve" smooth="yes"/>
      <point x="164" y="705"/>
      <point x="92" y="626"/>
      <point x="92" y="529" type="curve" smooth="yes"/>
      <point x="92" y="432"/>
      <point x="163" y="353"/>
    </contour>
    <contour>
      <point x="263" y="401" type="curve" smooth="yes"/>
      <point x="188" y="401"/>
      <point x="148" y="458"/>
      <point x="148" y="529" type="curve" smooth="yes"/>
      <point x="148" y="601"/>
      <point x="189" y="658"/>
      <point x="263" y="658" type="curve" smooth="yes"/>
      <point x="336" y="658"/>
      <point x="378" y="601"/>
      <point x="378" y="529" type="curve" smooth="yes"/>
      <point x="378" y="458"/>
      <point x="337" y="401"/>
    </contour>
  </outline>
</glyph>
<glyph name="germandbls" format="2">
  <advance width="634"/>
  <unicode hex="00DF"/>
  <outline>
    <contour>
      <point x="415" y="-8" type="curve" smooth="yes"/>
      <point x="509" y="-8"/>
      <point x="596" y="42"/>
      <point x="596" y="146" type="curve" smooth="yes"/>
      <point x="596" y="332"/>
      <point x="323" y="266"/>
      <point x="323" y="362" type="curve" smooth="yes"/>
      <point x="323" y="452"/>
      <point x="529" y="415"/>
      <point x="529" y="560" type="curve" smooth="yes"/>
      <point x="529" y="652"/>
      <point x="442" y="705"/>
      <point x="320" y="705" type="curve" smooth="yes"/>
      <point x="112" y="705"/>
      <point x="72" y="581"/>
      <point x="72" y="459" type="curve" smooth="yes"/>
      <point x="72" y="0" type="line"/>
      <point x="160" y="0" type="line"/>
      <point x="160" y="459" type="line" smooth="yes"/>
      <point x="160" y="517"/>
      <point x="159" y="626"/>
      <point x="326" y="626" type="curve" smooth="yes"/>
      <point x="385" y="626"/>
      <point x="446" y="601"/>
      <point x="446" y="558" type="curve" smooth="yes"/>
      <point x="446" y="473"/>
      <point x="240" y="522"/>
      <point x="240" y="362" type="curve" smooth="yes"/>
      <point x="240" y="187"/>
      <point x="513" y="258"/>
      <point x="513" y="138" type="curve" smooth="yes"/>
      <point x="513" y="95"/>
      <point x="478" y="63"/>
      <point x="414" y="63" type="curve" smooth="yes"/>
      <point x="343" y="63"/>
      <point x="299" y="104"/>
      <point x="280" y="155" type="curve"/>
      <point x="212" y="124" type="line"/>
      <point x="237" y="49"/>
      <point x="317" y="-8"/>
    </contour>
  </outline>
</glyph>
<glyph name="ae" format="2">
  <advance width="867"/>
  <unicode hex="00E6"/>
  <anchor x="436" y="0" name="bottom"/>
  <anchor x="436" y="493" name="top"/>
  <outline>
    <contour>
      <point x="226" y="-8" type="curve" smooth="yes"/>
      <point x="313" y="-8"/>
      <point x="372" y="32"/>
      <point x="411" y="122" type="curve"/>
      <point x="421" y="122" type="line"/>
      <point x="449" y="40"/>
      <point x="514" y="-8"/>
      <point x="606" y="-8" type="curve" smooth="yes"/>
      <point x="688" y="-8"/>
      <point x="743" y="10"/>
      <point x="804" y="76" type="curve"/>
      <point x="744" y="128" type="line"/>
      <point x="706" y="87"/>
      <point x="667" y="70"/>
      <point x="608" y="70" type="curve" smooth="yes"/>
      <point x="520" y="70"/>
      <point x="474" y="127"/>
      <point x="470" y="221" type="curve"/>
      <point x="815" y="221" type="line"/>
      <point x="817" y="234"/>
      <point x="818" y="255"/>
      <point x="818" y="272" type="curve" smooth="yes"/>
      <point x="818" y="390"/>
      <point x="762" y="498"/>
      <point x="606" y="498" type="curve" smooth="yes"/>
      <point x="533" y="498"/>
      <point x="478" y="460"/>
      <point x="445" y="401" type="curve"/>
      <point x="423" y="466"/>
      <point x="365" y="501"/>
      <point x="277" y="501" type="curve" smooth="yes"/>
      <point x="193" y="501"/>
      <point x="126" y="477"/>
      <point x="64" y="408" type="curve"/>
      <point x="126" y="356" type="line"/>
      <point x="166" y="409"/>
      <point x="215" y="428"/>
      <point x="268" y="428" type="curve" smooth="yes"/>
      <point x="347" y="428"/>
      <point x="391" y="385"/>
      <point x="391" y="309" type="curve" smooth="yes"/>
      <point x="391" y="287" type="line"/>
      <point x="272" y="287" type="line" smooth="yes"/>
      <point x="219" y="287"/>
      <point x="49" y="287"/>
      <point x="49" y="145" type="curve" smooth="yes"/>
      <point x="49" y="55"/>
      <point x="113" y="-8"/>
    </contour>
    <contour>
      <point x="236" y="65" type="curve" smooth="yes"/>
      <point x="172" y="65"/>
      <point x="135" y="96"/>
      <point x="135" y="143" type="curve" smooth="yes"/>
      <point x="135" y="193"/>
      <point x="175" y="226"/>
      <point x="278" y="226" type="curve" smooth="yes"/>
      <point x="391" y="226" type="line"/>
      <point x="391" y="218" type="line"/>
      <point x="382" y="114"/>
      <point x="318" y="65"/>
    </contour>
    <contour>
      <point x="469" y="283" type="line"/>
      <point x="471" y="359"/>
      <point x="516" y="428"/>
      <point x="606" y="428" type="curve" smooth="yes"/>
      <point x="714" y="428"/>
      <point x="742" y="318"/>
      <point x="740" y="283" type="curve"/>
    </contour>
  </outline>
</glyph>
<glyph name="divide" format="2">
  <advance width="560"/>
  <unicode hex="00F7"/>
  <outline>
    <contour>
      <point x="65" y="214" type="line"/>
      <point x="495" y="214" type="line"/>
      <point x="495" y="281" type="line"/>
      <point x="65" y="281" type="line"/>
    </contour>
    <contour>
      <point x="230" y="31" type="line"/>
      <point x="330" y="31" type="line"/>
      <point x="330" y="149" type="line"/>
      <point x="230" y="149" type="line"/>
    </contour>
    <contour>
      <point x="230" y="346" type="line"/>
      <point x="330" y="346" type="line"/>
      <point x="330" y="463" type="line"/>
      <point x="230" y="463" type="line"/>
    </contour>
  </outline>
</glyph>
<glyph name="thorn" format="2">
  <advance width="627"/>
  <unicode hex="00FE"/>
  <guideline x="406" y="-204" angle="0" name=""/>
  <anchor x="312" y="0" name="bottom"/>
  <anchor x="312" y="493" name="top"/>
  <outline>
    <contour>
      <point x="104" y="-204" type="line"/>
      <point x="189" y="-204" type="line"/>
      <point x="189" y="147" type="line"/>
      <point x="175" y="124" type="line"/>
      <point x="195" y="45"/>
      <point x="274" y="-8"/>
      <point x="358" y="-8" type="curve" smooth="yes"/>
      <point x="475" y="-8"/>
      <point x="561" y="89"/>
      <point x="561" y="245" type="curve" smooth="yes"/>
      <point x="561" y="390"/>
      <point x="488" y="501"/>
      <point x="358" y="501" type="curve" smooth="yes"/>
      <point x="276" y="501"/>
      <point x="197" y="454"/>
      <point x="172" y="366" type="curve"/>
      <point x="189" y="347" type="line"/>
      <point x="189" y="697" type="line"/>
      <point x="104" y="697" type="line"/>
    </contour>
    <contour>
      <point x="335" y="66" type="curve" smooth="yes"/>
      <point x="238" y="66"/>
      <point x="181" y="145"/>
      <point x="181" y="246" type="curve" smooth="yes"/>
      <point x="181" y="348"/>
      <point x="237" y="427"/>
      <point x="336" y="427" type="curve" smooth="yes"/>
      <point x="430" y="427"/>
      <point x="477" y="355"/>
      <point x="477" y="246" type="curve" smooth="yes"/>
      <point x="477" y="137"/>
      <point x="428" y="66"/>
    </contour>
  </outline>
</glyph>
<glyph name="kgreenlandic" format="2">
  <advance width="547"/>
  <unicode hex="0138"/>
  <anchor x="271" y="0" name="bottom"/>
  <anchor x="267" y="493" name="top"/>
  <outline>
    <contour>
      <point x="407" y="0" type="line"/>
      <point x="508" y="0" type="line"/>
      <point x="305" y="311" type="line"/>
      <point x="482" y="493" type="line"/>
      <point x="373" y="493" type="line"/>
      <point x="146" y="259" type="line"/>
      <point x="146" y="150" type="line"/>
      <point x="243" y="254" type="line"/>
    </contour>
    <contour>
      <point x="72" y="0" type="line"/>
      <point x="157" y="0" type="line"/>
      <point x="157" y="493" type="line"/>
      <point x="72" y="493" type="line"/>
    </contour>
  </outline>
</glyph>
<glyph name="Eng" format="2">
  <advance width="676"/>
  <unicode hex="014A"/>
  <outline>
    <contour>
      <point x="443" y="-175" type="curve" smooth="yes"/>
      <point x="554" y="-175"/>
      <point x="597" y="-98"/>
      <point x="597" y="-9" type="curve" smooth="yes"/>
      <point x="597" y="697" type="line"/>
      <point x="509" y="697" type="line"/>
      <point x="509" y="124" type="line"/>
      <point x="526" y="124" type="line"/>
      <point x="172" y="697" type="line"/>
      <point x="79" y="697" type="line"/>
      <point x="79" y="0" type="line"/>
      <point x="167" y="0" type="line"/>
      <point x="167" y="575" type="line"/>
      <point x="149" y="575" type="line"/>
      <point x="502" y="0" type="line" smooth="yes"/>
      <point x="508" y="-10"/>
      <point x="512" y="-20"/>
      <point x="512" y="-37" type="curve" smooth="yes"/>
      <point x="512" y="-79"/>
      <point x="485" y="-116"/>
      <point x="420" y="-116" type="curve" smooth="yes"/>
      <point x="408" y="-116"/>
      <point x="388" y="-113"/>
      <point x="373" y="-108" type="curve"/>
      <point x="371" y="-166" type="line"/>
      <point x="397" y="-171"/>
      <point x="421" y="-175"/>
    </contour>
  </outline>
</glyph>
<glyph name="tbar" format="2">
  <advance width="368"/>
  <unicode hex="0167"/>
  <anchor x="200" y="131" name="bottom"/>
  <anchor x="210" y="117" name="center"/>
  <anchor x="195" y="493" name="top"/>
  <anchor x="350" y="567" name="topright"/>
  <outline>
    <contour>
      <point x="247" y="-8" type="curve" smooth="yes"/>
      <point x="271" y="-8"/>
      <point x="298" y="-4"/>
      <point x="323" y="5" type="curve"/>
      <point x="323" y="71" type="line"/>
      <point x="302" y="65"/>
      <point x="282" y="62"/>
      <point x="269" y="62" type="curve" smooth="yes"/>
      <point x="224" y="62"/>
      <point x="209" y="93"/>
      <point x="209" y="148" type="curve" smooth="yes"/>
      <point x="209" y="673" type="line"/>
      <point x="123" y="625" type="line"/>
      <point x="123" y="126" type="line" smooth="yes"/>
      <point x="123" y="31"/>
      <point x="176" y="-8"/>
    </contour>
    <contour>
      <point x="21" y="219" type="line"/>
      <point x="323" y="219" type="line"/>
      <point x="323" y="277" type="line"/>
      <point x="21" y="277" type="line"/>
    </contour>
    <contour>
      <point x="21" y="427" type="line"/>
      <point x="323" y="427" type="line"/>
      <point x="323" y="493" type="line"/>
      <point x="21" y="493" type="line"/>
    </contour>
  </outline>
</glyph>
<glyph name="jdotless" format="2">
  <advance width="226"/>
  <unicode hex="0237"/>
  <guideline x="366" y="-204" angle="0" name=""/>
  <anchor x="114" y="-254" name="bottom"/>
  <anchor x="114" y="493" name="top"/>
  <outline>
    <contour>
      <point x="52" y="-212" type="curve" smooth="yes"/>
      <point x="115" y="-212"/>
      <point x="155" y="-176"/>
      <point x="155" y="-95" type="curve" smooth="yes"/>
      <point x="155" y="493" type="line"/>
      <point x="71" y="493" type="line"/>
      <point x="71" y="-73" type="line" smooth="yes"/>
      <point x="71" y="-119"/>
      <point x="54" y="-134"/>
      <point x="22" y="-134" type="curve" smooth="yes"/>
      <point x="12" y="-134"/>
      <point x="-4" y="-132"/>
      <point x="-25" y="-125" type="curve"/>
      <point x="-25" y="-199" type="line"/>
      <point x="2" y="-207"/>
      <point x="29" y="-212"/>
    </contour>
  </outline>
</glyph>
<glyph name="nhookleft" format="2">
  <advance width="549"/>
  <unicode hex="0272"/>
  <outline>
    <contour>
      <point x="75" y="0" type="line"/>
      <point x="159" y="0" type="line"/>
      <point x="159" y="242" type="line" smooth="yes"/>
      <point x="159" y="324"/>
      <point x="174" y="428"/>
      <point x="285" y="428" type="curve" smooth="yes"/>
      <point x="379" y="428"/>
      <point x="398" y="358"/>
      <point x="398" y="301" type="curve" smooth="yes"/>
      <point x="398" y="0" type="line"/>
      <point x="483" y="0" type="line"/>
      <point x="483" y="328" type="line" smooth="yes"/>
      <point x="483" y="439"/>
      <point x="417" y="501"/>
      <point x="310" y="501" type="curve" smooth="yes"/>
      <point x="232" y="501"/>
      <point x="168" y="465"/>
      <point x="143" y="387" type="curve"/>
      <point x="159" y="369" type="line"/>
      <point x="159" y="493" type="line"/>
      <point x="75" y="493" type="line"/>
    </contour>
    <contour>
      <point x="59" y="-212" type="curve" smooth="yes"/>
      <point x="120" y="-212"/>
      <point x="159" y="-176"/>
      <point x="159" y="-95" type="curve" smooth="yes"/>
      <point x="159" y="0" type="line"/>
      <point x="75" y="0" type="line"/>
      <point x="75" y="-84" type="line" smooth="yes"/>
      <point x="75" y="-124"/>
      <point x="60" y="-139"/>
      <point x="31" y="-139" type="curve" smooth="yes"/>
      <point x="22" y="-139"/>
      <point x="7" y="-137"/>
      <point x="-12" y="-130" type="curve"/>
      <point x="-12" y="-199" type="line"/>
      <point x="14" y="-208"/>
      <point x="38" y="-212"/>
    </contour>
  </outline>
</glyph>
<glyph name="circumflex" format="2">
  <advance width="400"/>
  <unicode hex="02C6"/>
  <outline>
    <contour>
      <point x="49" y="547" type="line"/>
      <point x="117" y="547" type="line"/>
      <point x="200" y="636" type="line"/>
      <point x="283" y="547" type="line"/>
      <point x="351" y="547" type="line"/>
      <point x="200" y="709" type="line"/>
    </contour>
  </outline>
</glyph>
<glyph name="dotaccent" format="2">
  <advance width="198"/>
  <unicode hex="02D9"/>
  <outline>
    <contour>
      <point x="49" y="582" type="line"/>
      <point x="149" y="582" type="line"/>
      <point x="149" y="697" type="line"/>
      <point x="49" y="697" type="line"/>
    </contour>
  </outline>
</glyph>
<glyph name="middledoublegraveaccentmod" format="2">
  <advance width="518"/>
  <unicode hex="02F5"/>
  <outline>
    <contour>
      <point x="193" y="339" type="line"/>
      <point x="256" y="339" type="line"/>
      <point x="145" y="493" type="line"/>
      <point x="54" y="493" type="line"/>
    </contour>
    <contour>
      <point x="403" y="339" type="line"/>
      <point x="466" y="339" type="line"/>
      <point x="354" y="493" type="line"/>
      <point x="264" y="493" type="line"/>
    </contour>
  </outline>
</glyph>
<glyph name="middledoubleacuteaccentmod" format="2">
  <advance width="518"/>
  <unicode hex="02F6"/>
  <outline>
    <contour>
      <point x="52" y="339" type="line"/>
      <point x="116" y="339" type="line"/>
      <point x="255" y="493" type="line"/>
      <point x="164" y="493" type="line"/>
    </contour>
    <contour>
      <point x="263" y="339" type="line"/>
      <point x="326" y="339" type="line"/>
      <point x="464" y="493" type="line"/>
      <point x="374" y="493" type="line"/>
    </contour>
  </outline>
</glyph>
<glyph name="acutecomb" format="2">
  <advance width="298"/>
  <unicode hex="0301"/>
  <anchor x="81" y="493" name="_top"/>
  <anchor x="148" y="697" name="top"/>
  <outline>
    <contour>
      <point x="49" y="556" type="line"/>
      <point x="112" y="556" type="line"/>
      <point x="249" y="697" type="line"/>
      <point x="158" y="697" type="line"/>
    </contour>
  </outline>
</glyph>
<glyph name="circumflexcomb" format="2">
  <advance width="400"/>
  <unicode hex="0302"/>
  <anchor x="200" y="493" name="_top"/>
  <anchor x="200" y="693" name="top"/>
  <outline>
    <contour>
      <point x="49" y="547" type="line"/>
      <point x="119" y="547" type="line"/>
      <point x="200" y="636" type="line"/>
      <point x="282" y="547" type="line"/>
      <point x="351" y="547" type="line"/>
      <point x="200" y="709" type="line"/>
    </contour>
  </outline>
</glyph>
<glyph name="tildecomb" format="2">
  <advance width="420"/>
  <unicode hex="0303"/>
  <anchor x="211" y="493" name="_top"/>
  <anchor x="211" y="701" name="top"/>
  <outline>
    <contour>
      <point x="277" y="567" type="curve" smooth="yes"/>
      <point x="334" y="567"/>
      <point x="371" y="615"/>
      <point x="371" y="697" type="curve"/>
      <point x="319" y="697" type="line"/>
      <point x="319" y="649"/>
      <point x="301" y="619"/>
      <point x="278" y="619" type="curve" smooth="yes"/>
      <point x="229" y="619"/>
      <point x="219" y="701"/>
      <point x="146" y="701" type="curve" smooth="yes"/>
      <point x="86" y="701"/>
      <point x="49" y="654"/>
      <point x="49" y="573" type="curve"/>
      <point x="99" y="573" type="line"/>
      <point x="99" y="620"/>
      <point x="116" y="647"/>
      <point x="142" y="647" type="curve" smooth="yes"/>
      <point x="191" y="647"/>
      <point x="196" y="567"/>
    </contour>
  </outline>
</glyph>
<glyph name="brevecomb" format="2">
  <advance width="402"/>
  <unicode hex="0306"/>
  <anchor x="201" y="493" name="_top"/>
  <anchor x="201" y="697" name="top"/>
  <outline>
    <contour>
      <point x="201" y="556" type="curve" smooth="yes"/>
      <point x="301" y="556"/>
      <point x="353" y="600"/>
      <point x="353" y="697" type="curve"/>
      <point x="298" y="697" type="line"/>
      <point x="298" y="634"/>
      <point x="263" y="606"/>
      <point x="201" y="606" type="curve" smooth="yes"/>
      <point x="141" y="606"/>
      <point x="104" y="633"/>
      <point x="104" y="697" type="curve"/>
      <point x="49" y="697" type="line"/>
      <point x="49" y="602"/>
      <point x="98" y="556"/>
    </contour>
  </outline>
</glyph>
<glyph name="dotaccentcomb" format="2">
  <advance width="198"/>
  <unicode hex="0307"/>
  <anchor x="99" y="493" name="_top"/>
  <anchor x="99" y="697" name="top"/>
  <outline>
    <contour>
      <point x="49" y="582" type="line"/>
      <point x="149" y="582" type="line"/>
      <point x="149" y="697" type="line"/>
      <point x="49" y="697" type="line"/>
    </contour>
  </outline>
</glyph>
<glyph name="hookabovecomb" format="2">
  <advance width="265"/>
  <unicode hex="0309"/>
  <anchor x="107" y="493" name="_top"/>
  <anchor x="133" y="698" name="top"/>
  <outline>
    <contour>
      <point x="87" y="523" type="line"/>
      <point x="144" y="531"/>
      <point x="216" y="544"/>
      <point x="216" y="607" type="curve" smooth="yes"/>
      <point x="216" y="664"/>
      <point x="153" y="698"/>
      <point x="64" y="698" type="curve" smooth="yes"/>
      <point x="49" y="698" type="line"/>
      <point x="49" y="649" type="line"/>
      <point x="64" y="649" type="line" smooth="yes"/>
      <point x="111" y="649"/>
      <point x="155" y="637"/>
      <point x="155" y="601" type="curve" smooth="yes"/>
      <point x="155" y="568"/>
      <point x="115" y="561"/>
      <point x="81" y="555" type="curve"/>
    </contour>
  </outline>
</glyph>
<glyph name="caroncomb" format="2">
  <advance width="400"/>
  <unicode hex="030C"/>
  <anchor x="200" y="493" name="_top"/>
  <anchor x="200" y="697" name="top"/>
  <outline>
    <contour>
      <point x="200" y="541" type="line"/>
      <point x="351" y="697" type="line"/>
      <point x="284" y="697" type="line"/>
      <point x="200" y="611" type="line"/>
      <point x="116" y="697" type="line"/>
      <point x="49" y="697" type="line"/>
    </contour>
  </outline>
</glyph>
<glyph name="commaturnedabovecomb" format="2">
  <advance width="269"/>
  <unicode hex="0312"/>
  <anchor x="134" y="493" name="_top"/>
  <anchor x="134" y="704" name="top"/>
  <outline>
    <contour>
      <point x="49" y="554" type="line"/>
      <point x="138" y="554" type="line"/>
      <point x="220" y="704" type="line"/>
      <point x="167" y="704" type="line"/>
    </contour>
  </outline>
</glyph>
<glyph name="horncomb" format="2">
  <advance width="225"/>
  <unicode hex="031B"/>
  <anchor x="121" y="493" name="_topright"/>
  <anchor x="121" y="493" name="topright"/>
  <outline>
    <contour>
      <point x="49" y="496" type="line"/>
      <point x="150" y="496"/>
      <point x="193" y="560"/>
      <point x="193" y="652" type="curve" smooth="yes"/>
      <point x="193" y="697" type="line"/>
      <point x="133" y="697" type="line"/>
      <point x="133" y="657" type="line" smooth="yes"/>
      <point x="133" y="589"/>
      <point x="109" y="552"/>
      <point x="49" y="552" type="curve"/>
    </contour>
  </outline>
</glyph>
<glyph name="dotbelowcomb" format="2">
  <advance width="198"/>
  <unicode hex="0323"/>
  <anchor x="99" y="0" name="_bottom"/>
  <anchor x="99" y="-174" name="bottom"/>
  <outline>
    <contour>
      <point x="49" y="-174" type="line"/>
      <point x="149" y="-174" type="line"/>
      <point x="149" y="-69" type="line"/>
      <point x="49" y="-69" type="line"/>
    </contour>
  </outline>
</glyph>
<glyph name="commaaccentcomb" format="2">
  <advance width="269"/>
  <unicode hex="0326"/>
  <anchor x="175" y="0" name="_bottom"/>
  <anchor x="135" y="-204" name="bottom"/>
  <outline>
    <contour>
      <point x="49" y="-204" type="line"/>
      <point x="101" y="-204" type="line"/>
      <point x="220" y="-55" type="line"/>
      <point x="130" y="-55" type="line"/>
    </contour>
  </outline>
</glyph>
<glyph name="ogonekcomb" format="2">
  <advance width="287"/>
  <unicode hex="0328"/>
  <anchor x="203" y="0" name="_ogonek"/>
  <outline>
    <contour>
      <point x="140" y="-204" type="curve" smooth="yes"/>
      <point x="173" y="-204"/>
      <point x="209" y="-190"/>
      <point x="238" y="-161" type="curve"/>
      <point x="212" y="-121" type="line"/>
      <point x="188" y="-143"/>
      <point x="161" y="-154"/>
      <point x="140" y="-154" type="curve" smooth="yes"/>
      <point x="117" y="-154"/>
      <point x="100" y="-141"/>
      <point x="100" y="-114" type="curve" smooth="yes"/>
      <point x="100" y="-63"/>
      <point x="163" y="-21"/>
      <point x="203" y="0" type="curve"/>
      <point x="136" y="2" type="line"/>
      <point x="96" y="-21"/>
      <point x="49" y="-63"/>
      <point x="49" y="-121" type="curve" smooth="yes"/>
      <point x="49" y="-174"/>
      <point x="91" y="-204"/>
    </contour>
  </outline>
</glyph>
<glyph name="strokeshortcomb" format="2">
  <advance width="384"/>
  <unicode hex="0335"/>
  <anchor x="192" y="290" name="_center"/>
  <outline>
    <contour>
      <point x="49" y="262" type="line"/>
      <point x="335" y="262" type="line"/>
      <point x="335" y="319" type="line"/>
      <point x="49" y="319" type="line"/>
    </contour>
  </outline>
</glyph>
<glyph name="strokelongcomb" format="2">
  <advance width="740"/>
  <unicode hex="0336"/>
  <anchor x="369" y="282" name="_center"/>
  <outline>
    <contour>
      <point x="49" y="256" type="line"/>
      <point x="691" y="256" type="line"/>
      <point x="691" y="307" type="line"/>
      <point x="49" y="307" type="line"/>
    </contour>
  </outline>
</glyph>
<glyph name="slashshortcomb" format="2">
  <advance width="320"/>
  <unicode hex="0337"/>
  <anchor x="160" y="372" name="_center"/>
  <outline>
    <contour>
      <point x="49" y="240" type="line"/>
      <point x="271" y="417" type="line"/>
      <point x="271" y="503" type="line"/>
      <point x="49" y="327" type="line"/>
    </contour>
  </outline>
</glyph>
<glyph name="slashlongcomb" format="2">
  <advance width="503"/>
  <unicode hex="0338"/>
  <anchor x="252" y="295" name="_center"/>
  <outline>
    <contour>
      <point x="49" y="0" type="line"/>
      <point x="92" y="0" type="line"/>
      <point x="454" y="588" type="line"/>
      <point x="411" y="588" type="line"/>
    </contour>
  </outline>
</glyph>
<glyph name="dieresistonos" format="2">
  <advance width="451"/>
  <unicode hex="0385"/>
  <anchor x="225" y="493" name="_top"/>
  <outline>
    <contour>
      <point x="49" y="582" type="line"/>
      <point x="149" y="582" type="line"/>
      <point x="149" y="697" type="line"/>
      <point x="49" y="697" type="line"/>
    </contour>
    <contour>
      <point x="302" y="582" type="line"/>
      <point x="402" y="582" type="line"/>
      <point x="402" y="697" type="line"/>
      <point x="302" y="697" type="line"/>
    </contour>
    <contour>
      <point x="236" y="597" type="line"/>
      <point x="307" y="797" type="line"/>
      <point x="241" y="810" type="line"/>
      <point x="193" y="607" type="line"/>
    </contour>
  </outline>
</glyph>
<glyph name="Delta" format="2">
  <advance width="719"/>
  <unicode hex="0394"/>
  <outline>
    <contour>
      <point x="59" y="0" type="line"/>
      <point x="660" y="0" type="line"/>
      <point x="395" y="697" type="line"/>
      <point x="324" y="697" type="line"/>
    </contour>
    <contour>
      <point x="185" y="81" type="line"/>
      <point x="360" y="571" type="line"/>
      <point x="534" y="81" type="line"/>
    </contour>
  </outline>
</glyph>
<glyph name="Germandbls" format="2">
  <advance width="762"/>
  <unicode hex="1E9E"/>
  <anchor x="382" y="0" name="bottom"/>
  <anchor x="382" y="697" name="top"/>
  <outline>
    <contour>
      <point x="79" y="0" type="line"/>
      <point x="167" y="0" type="line"/>
      <point x="167" y="618" type="line"/>
      <point x="685" y="618" type="line"/>
      <point x="685" y="697" type="line"/>
      <point x="79" y="697" type="line"/>
    </contour>
    <contour>
      <point x="485" y="-11" type="curve" smooth="yes"/>
      <point x="617" y="-11"/>
      <point x="717" y="76"/>
      <point x="717" y="194" type="curve" smooth="yes"/>
      <point x="717" y="309"/>
      <point x="632" y="352"/>
      <point x="518" y="400" type="curve" smooth="yes"/>
      <point x="422" y="440"/>
      <point x="366" y="465"/>
      <point x="366" y="539" type="curve" smooth="yes"/>
      <point x="366" y="589"/>
      <point x="399" y="627"/>
      <point x="448" y="636" type="curve"/>
      <point x="365" y="641" type="line"/>
      <point x="313" y="631"/>
      <point x="279" y="592"/>
      <point x="279" y="539" type="curve" smooth="yes"/>
      <point x="279" y="420"/>
      <point x="354" y="377"/>
      <point x="471" y="329" type="curve" smooth="yes"/>
      <point x="569" y="289"/>
      <point x="629" y="261"/>
      <point x="629" y="187" type="curve" smooth="yes"/>
      <point x="629" y="117"/>
      <point x="569" y="68"/>
      <point x="487" y="68" type="curve" smooth="yes"/>
      <point x="397" y="68"/>
      <point x="335" y="119"/>
      <point x="322" y="212" type="curve"/>
      <point x="235" y="190" type="line"/>
      <point x="254" y="72"/>
      <point x="351" y="-11"/>
    </contour>
  </outline>
</glyph>
<glyph name="endash" format="2">
  <advance width="412"/>
  <unicode hex="2013"/>
  <outline>
    <contour>
      <point x="24" y="272" type="line"/>
      <point x="388" y="272" type="line"/>
      <point x="388" y="335" type="line"/>
      <point x="24" y="335" type="line"/>
    </contour>
  </outline>
</glyph>
<glyph name="emdash" format="2">
  <advance width="1058"/>
  <unicode hex="2014"/>
  <outline>
    <contour>
      <point x="24" y="272" type="line"/>
      <point x="1034" y="272" type="line"/>
      <point x="1034" y="335" type="line"/>
      <point x="24" y="335" type="line"/>
    </contour>
  </outline>
</glyph>
<glyph name="horizontalbar" format="2">
  <advance width="689"/>
  <unicode hex="2015"/>
  <outline>
    <contour>
      <point x="41" y="272" type="line"/>
      <point x="648" y="272" type="line"/>
      <point x="648" y="335" type="line"/>
      <point x="41" y="335" type="line"/>
    </contour>
  </outline>
</glyph>
<glyph name="quoteleft" format="2">
  <advance width="263"/>
  <unicode hex="2018"/>
  <outline>
    <contour>
      <point x="35" y="414" type="line"/>
      <point x="133" y="414" type="line"/>
      <point x="223" y="697" type="line"/>
      <point x="166" y="697" type="line"/>
    </contour>
  </outline>
</glyph>
<glyph name="quoteright" format="2">
  <advance width="263"/>
  <unicode hex="2019"/>
  <outline>
    <contour>
      <point x="39" y="415" type="line"/>
      <point x="96" y="415" type="line"/>
      <point x="227" y="697" type="line"/>
      <point x="129" y="697" type="line"/>
    </contour>
  </outline>
</glyph>
<glyph name="quotedblright" format="2">
  <advance width="438"/>
  <unicode hex="201D"/>
  <outline>
    <contour>
      <point x="215" y="415" type="line"/>
      <point x="272" y="415" type="line"/>
      <point x="402" y="697" type="line"/>
      <point x="305" y="697" type="line"/>
    </contour>
    <contour>
      <point x="39" y="415" type="line"/>
      <point x="96" y="415" type="line"/>
      <point x="227" y="697" type="line"/>
      <point x="129" y="697" type="line"/>
    </contour>
  </outline>
</glyph>
<glyph name="quotedblbase" format="2">
  <advance width="387"/>
  <unicode hex="201E"/>
  <outline>
    <contour>
      <point x="191" y="-154" type="line"/>
      <point x="249" y="-154" type="line"/>
      <point x="378" y="130" type="line"/>
      <point x="281" y="130" type="line"/>
    </contour>
    <contour>
      <point x="9" y="-154" type="line"/>
      <point x="66" y="-154" type="line"/>
      <point x="197" y="130" type="line"/>
      <point x="99" y="130" type="line"/>
    </contour>
  </outline>
</glyph>
<glyph name="dagger" format="2">
  <advance width="385"/>
  <unicode hex="2020"/>
  <outline>
    <contour>
      <point x="160" y="-101" type="line"/>
      <point x="224" y="-101" type="line"/>
      <point x="224" y="431" type="line"/>
      <point x="350" y="431" type="line"/>
      <point x="350" y="494" type="line"/>
      <point x="224" y="494" type="line"/>
      <point x="224" y="697" type="line"/>
      <point x="160" y="697" type="line"/>
      <point x="160" y="494" type="line"/>
      <point x="35" y="494" type="line"/>
      <point x="35" y="431" type="line"/>
      <point x="160" y="431" type="line"/>
    </contour>
  </outline>
</glyph>
<glyph name="bullet" format="2">
  <advance width="353"/>
  <unicode hex="2022"/>
  <outline>
    <contour>
      <point x="66" y="137" type="line"/>
      <point x="287" y="137" type="line"/>
      <point x="287" y="358" type="line"/>
      <point x="66" y="358" type="line"/>
    </contour>
  </outline>
</glyph>
<glyph name="triangularbullet" format="2">
  <advance width="371"/>
  <unicode hex="2023"/>
  <outline>
    <contour>
      <point x="67" y="90" type="line"/>
      <point x="351" y="255" type="line"/>
      <point x="67" y="419" type="line"/>
    </contour>
  </outline>
</glyph>
<glyph name="twodotenleader" format="2">
  <advance width="444"/>
  <unicode hex="2025"/>
  <outline>
    <contour>
      <point x="274" y="0" type="line"/>
      <point x="374" y="0" type="line"/>
      <point x="374" y="116" type="line"/>
      <point x="274" y="116" type="line"/>
    </contour>
    <contour>
      <point x="70" y="0" type="line"/>
      <point x="170" y="0" type="line"/>
      <point x="170" y="116" type="line"/>
      <point x="70" y="116" type="line"/>
    </contour>
  </outline>
</glyph>
<glyph name="ellipsis" format="2">
  <advance width="668"/>
  <unicode hex="2026"/>
  <outline>
    <contour>
      <point x="509" y="0" type="line"/>
      <point x="598" y="0" type="line"/>
      <point x="598" y="116" type="line"/>
      <point x="509" y="116" type="line"/>
    </contour>
    <contour>
      <point x="70" y="0" type="line"/>
      <point x="158" y="0" type="line"/>
      <point x="158" y="116" type="line"/>
      <point x="70" y="116" type="line"/>
    </contour>
    <contour>
      <point x="290" y="0" type="line"/>
      <point x="379" y="0" type="line"/>
      <point x="379" y="116" type="line"/>
      <point x="290" y="116" type="line"/>
    </contour>
  </outline>
</glyph>
<glyph name="guilsinglleft" format="2">
  <advance width="246"/>
  <unicode hex="2039"/>
  <outline>
    <contour>
      <point x="231" y="60" type="line"/>
      <point x="231" y="151" type="line"/>
      <point x="104" y="253" type="line"/>
      <point x="231" y="354" type="line"/>
      <point x="231" y="445" type="line"/>
      <point x="3" y="253" type="line"/>
    </contour>
  </outline>
</glyph>
<glyph name="fraction" format="2">
  <advance width="113"/>
  <unicode hex="2044"/>
  <outline>
    <contour>
      <point x="-175" y="0" type="line"/>
      <point x="-114" y="0" type="line"/>
      <point x="288" y="697" type="line"/>
      <point x="227" y="697" type="line"/>
    </contour>
  </outline>
</glyph>
<glyph name="foursuperior" format="2">
  <advance width="411"/>
  <unicode hex="2074"/>
  <outline>
    <contour>
      <point x="243" y="484" type="line"/>
      <point x="296" y="484" type="line"/>
      <point x="296" y="584" type="line"/>
      <point x="363" y="584" type="line"/>
      <point x="363" y="633" type="line"/>
      <point x="296" y="633" type="line"/>
      <point x="296" y="902" type="line"/>
      <point x="241" y="902" type="line"/>
      <point x="45" y="632" type="line"/>
      <point x="45" y="584" type="line"/>
      <point x="243" y="584" type="line"/>
    </contour>
    <contour>
      <point x="89" y="618" type="line"/>
      <point x="250" y="842" type="line"/>
      <point x="243" y="843" type="line"/>
      <point x="243" y="633" type="line"/>
      <point x="84" y="633" type="line"/>
    </contour>
  </outline>
</glyph>
<glyph name="dong" format="2">
  <advance width="560"/>
  <unicode hex="20AB"/>
  <outline>
    <contour>
      <point x="239" y="142" type="curve" smooth="yes"/>
      <point x="313" y="142"/>
      <point x="368" y="192"/>
      <point x="378" y="266" type="curve"/>
      <point x="365" y="266" type="line"/>
      <point x="376" y="149" type="line"/>
      <point x="439" y="149" type="line"/>
      <point x="439" y="718" type="line"/>
      <point x="365" y="718" type="line"/>
      <point x="365" y="434" type="line"/>
      <point x="396" y="424" type="line"/>
      <point x="375" y="512"/>
      <point x="321" y="558"/>
      <point x="239" y="558" type="curve" smooth="yes"/>
      <point x="136" y="558"/>
      <point x="57" y="476"/>
      <point x="57" y="351" type="curve" smooth="yes"/>
      <point x="57" y="233"/>
      <point x="128" y="142"/>
    </contour>
    <contour>
      <point x="64" y="0" type="line"/>
      <point x="497" y="0" type="line"/>
      <point x="497" y="51" type="line"/>
      <point x="64" y="51" type="line"/>
    </contour>
    <contour>
      <point x="252" y="210" type="curve" smooth="yes"/>
      <point x="181" y="210"/>
      <point x="131" y="268"/>
      <point x="131" y="351" type="curve" smooth="yes"/>
      <point x="131" y="433"/>
      <point x="181" y="490"/>
      <point x="252" y="490" type="curve" smooth="yes"/>
      <point x="323" y="490"/>
      <point x="372" y="433"/>
      <point x="372" y="351" type="curve" smooth="yes"/>
      <point x="372" y="268"/>
      <point x="323" y="210"/>
    </contour>
    <contour>
      <point x="259" y="617" type="line"/>
      <point x="497" y="617" type="line"/>
      <point x="497" y="663" type="line"/>
      <point x="259" y="663" type="line"/>
    </contour>
  </outline>
</glyph>
<glyph name="euro" format="2">
  <advance width="560"/>
  <unicode hex="20AC"/>
  <outline>
    <contour>
      <point x="342" y="-8" type="curve" smooth="yes"/>
      <point x="426" y="-8"/>
      <point x="492" y="14"/>
      <point x="544" y="58" type="curve"/>
      <point x="497" y="128" type="line"/>
      <point x="459" y="91"/>
      <point x="408" y="71"/>
      <point x="342" y="71" type="curve" smooth="yes"/>
      <point x="212" y="71"/>
      <point x="146" y="190"/>
      <point x="146" y="354" type="curve" smooth="yes"/>
      <point x="146" y="507"/>
      <point x="214" y="626"/>
      <point x="346" y="626" type="curve" smooth="yes"/>
      <point x="409" y="626"/>
      <point x="456" y="608"/>
      <point x="494" y="577" type="curve"/>
      <point x="540" y="646" type="line"/>
      <point x="490" y="687"/>
      <point x="424" y="705"/>
      <point x="346" y="705" type="curve" smooth="yes"/>
      <point x="165" y="705"/>
      <point x="58" y="557"/>
      <point x="58" y="356" type="curve" smooth="yes"/>
      <point x="58" y="147"/>
      <point x="158" y="-8"/>
    </contour>
    <contour>
      <point x="6" y="249" type="line"/>
      <point x="424" y="249" type="line"/>
      <point x="426" y="307" type="line"/>
      <point x="6" y="307" type="line"/>
    </contour>
    <contour>
      <point x="7" y="402" type="line"/>
      <point x="426" y="402" type="line"/>
      <point x="427" y="460" type="line"/>
      <point x="7" y="460" type="line"/>
    </contour>
  </outline>
</glyph>
<glyph name="peso" format="2">
  <advance width="560"/>
  <unicode hex="20B1"/>
  <outline>
    <contour>
      <point x="77" y="0" type="line"/>
      <point x="164" y="0" type="line"/>
      <point x="164" y="300" type="line"/>
      <point x="264" y="300" type="line" smooth="yes"/>
      <point x="413" y="300"/>
      <point x="496" y="379"/>
      <point x="496" y="498" type="curve" smooth="yes"/>
      <point x="496" y="618"/>
      <point x="425" y="697"/>
      <point x="264" y="697" type="curve" smooth="yes"/>
      <point x="77" y="697" type="line"/>
    </contour>
    <contour>
      <point x="14" y="468" type="line"/>
      <point x="120" y="468" type="line"/>
      <point x="120" y="532" type="line"/>
      <point x="14" y="532" type="line"/>
    </contour>
    <contour>
      <point x="164" y="382" type="line"/>
      <point x="164" y="615" type="line"/>
      <point x="264" y="615" type="line" smooth="yes"/>
      <point x="361" y="615"/>
      <point x="409" y="575"/>
      <point x="409" y="498" type="curve" smooth="yes"/>
      <point x="409" y="421"/>
      <point x="362" y="382"/>
      <point x="264" y="382" type="curve" smooth="yes"/>
    </contour>
    <contour>
      <point x="470" y="468" type="line"/>
      <point x="550" y="468" type="line"/>
      <point x="550" y="532" type="line"/>
      <point x="470" y="532" type="line"/>
    </contour>
  </outline>
</glyph>
<glyph name="tenge" format="2">
  <advance width="560"/>
  <unicode hex="20B8"/>
  <outline>
    <contour>
      <point x="236" y="0" type="line"/>
      <point x="324" y="0" type="line"/>
      <point x="324" y="463" type="line"/>
      <point x="528" y="463" type="line"/>
      <point x="528" y="535" type="line"/>
      <point x="32" y="535" type="line"/>
      <point x="32" y="463" type="line"/>
      <point x="236" y="463" type="line"/>
    </contour>
    <contour>
      <point x="32" y="625" type="line"/>
      <point x="528" y="625" type="line"/>
      <point x="528" y="696" type="line"/>
      <point x="32" y="696" type="line"/>
    </contour>
  </outline>
</glyph>
<glyph name="numero" format="2">
  <advance width="1117"/>
  <unicode hex="2116"/>
  <anchor x="334" y="0" name="bottom"/>
  <anchor x="334" y="697" name="top"/>
  <outline>
    <contour>
      <point x="79" y="0" type="line"/>
      <point x="167" y="0" type="line"/>
      <point x="167" y="584" type="line"/>
      <point x="147" y="584" type="line"/>
      <point x="502" y="0" type="line"/>
      <point x="597" y="0" type="line"/>
      <point x="597" y="697" type="line"/>
      <point x="509" y="697" type="line"/>
      <point x="509" y="114" type="line"/>
      <point x="529" y="114" type="line"/>
      <point x="172" y="697" type="line"/>
      <point x="79" y="697" type="line"/>
    </contour>
    <contour>
      <point x="689" y="0" type="line"/>
      <point x="1071" y="0" type="line"/>
      <point x="1071" y="65" type="line"/>
      <point x="689" y="65" type="line"/>
    </contour>
    <contour>
      <point x="885" y="159" type="curve" smooth="yes"/>
      <point x="1004" y="159"/>
      <point x="1089" y="255"/>
      <point x="1089" y="373" type="curve" smooth="yes"/>
      <point x="1089" y="489"/>
      <point x="1005" y="585"/>
      <point x="885" y="585" type="curve" smooth="yes"/>
      <point x="765" y="585"/>
      <point x="683" y="489"/>
      <point x="683" y="373" type="curve" smooth="yes"/>
      <point x="683" y="255"/>
      <point x="765" y="159"/>
    </contour>
    <contour>
      <point x="885" y="220" type="curve" smooth="yes"/>
      <point x="800" y="220"/>
      <point x="756" y="289"/>
      <point x="756" y="373" type="curve" smooth="yes"/>
      <point x="756" y="455"/>
      <point x="800" y="523"/>
      <point x="885" y="523" type="curve" smooth="yes"/>
      <point x="970" y="523"/>
      <point x="1016" y="454"/>
      <point x="1016" y="373" type="curve" smooth="yes"/>
      <point x="1016" y="290"/>
      <point x="970" y="220"/>
    </contour>
  </outline>
</glyph>
<glyph name="rightArrow" format="2">
  <advance width="1106"/>
  <unicode hex="2192"/>
  <outline>
    <contour>
      <point x="564" y="22" type="line"/>
      <point x="1069" y="304" type="line"/>
      <point x="564" y="585" type="line"/>
      <point x="536" y="527" type="line"/>
      <point x="902" y="323" type="line"/>
      <point x="905" y="335" type="line"/>
      <point x="24" y="335" type="line"/>
      <point x="24" y="272" type="line"/>
      <point x="905" y="272" type="line"/>
      <point x="902" y="284" type="line"/>
      <point x="536" y="79" type="line"/>
    </contour>
  </outline>
</glyph>
<glyph name="emptyset" format="2">
  <advance width="723"/>
  <unicode hex="2205"/>
  <outline>
    <contour>
      <point x="96" y="37" type="line"/>
      <point x="152" y="37" type="line"/>
      <point x="191" y="87" type="line"/>
      <point x="240" y="55"/>
      <point x="298" y="37"/>
      <point x="361" y="37" type="curve" smooth="yes"/>
      <point x="533" y="37"/>
      <point x="672" y="177"/>
      <point x="672" y="348" type="curve" smooth="yes"/>
      <point x="672" y="445"/>
      <point x="629" y="527"/>
      <point x="566" y="582" type="curve"/>
      <point x="626" y="659" type="line"/>
      <point x="570" y="659" type="line"/>
      <point x="531" y="608" type="line"/>
      <point x="482" y="640"/>
      <point x="425" y="659"/>
      <point x="361" y="659" type="curve" smooth="yes"/>
      <point x="189" y="659"/>
      <point x="50" y="520"/>
      <point x="50" y="348" type="curve" smooth="yes"/>
      <point x="50" y="254"/>
      <point x="92" y="170"/>
      <point x="156" y="115" type="curve"/>
    </contour>
    <contour>
      <point x="189" y="157" type="line"/>
      <point x="134" y="205"/>
      <point x="103" y="273"/>
      <point x="103" y="348" type="curve" smooth="yes"/>
      <point x="103" y="491"/>
      <point x="218" y="606"/>
      <point x="361" y="606" type="curve" smooth="yes"/>
      <point x="414" y="606"/>
      <point x="458" y="591"/>
      <point x="499" y="566" type="curve"/>
    </contour>
    <contour>
      <point x="361" y="90" type="curve" smooth="yes"/>
      <point x="313" y="90"/>
      <point x="264" y="104"/>
      <point x="224" y="130" type="curve"/>
      <point x="534" y="540" type="line"/>
      <point x="587" y="493"/>
      <point x="619" y="423"/>
      <point x="619" y="348" type="curve" smooth="yes"/>
      <point x="619" y="206"/>
      <point x="504" y="90"/>
    </contour>
  </outline>
</glyph>
<glyph name="increment" format="2">
  <advance width="653"/>
  <unicode hex="2206"/>
  <outline>
    <contour>
      <point x="39" y="0" type="line"/>
      <point x="614" y="0" type="line"/>
      <point x="338" y="697" type="line"/>
      <point x="316" y="697" type="line"/>
    </contour>
    <contour>
      <point x="144" y="72" type="line"/>
      <point x="327" y="551" type="line"/>
      <point x="511" y="72" type="line"/>
    </contour>
  </outline>
</glyph>
<glyph name="summation" format="2">
  <advance width="613"/>
  <unicode hex="2211"/>
  <outline>
    <contour>
      <point x="46" y="0" type="line"/>
      <point x="572" y="0" type="line"/>
      <point x="572" y="81" type="line"/>
      <point x="145" y="81" type="line"/>
      <point x="157" y="56" type="line"/>
      <point x="442" y="348" type="line"/>
      <point x="157" y="642" type="line"/>
      <point x="145" y="617" type="line"/>
      <point x="572" y="617" type="line"/>
      <point x="572" y="697" type="line"/>
      <point x="46" y="697" type="line"/>
      <point x="46" y="648" type="line"/>
      <point x="327" y="348" type="line"/>
      <point x="46" y="49" type="line"/>
    </contour>
  </outline>
</glyph>
<glyph name="divisionslash" format="2">
  <advance width="400"/>
  <unicode hex="2215"/>
  <outline>
    <contour>
      <point x="30" y="0" type="line"/>
      <point x="95" y="0" type="line"/>
      <point x="370" y="697" type="line"/>
      <point x="304" y="697" type="line"/>
    </contour>
  </outline>
</glyph>
<glyph name="integral" format="2">
  <advance width="474"/>
  <unicode hex="222B"/>
  <outline>
    <contour>
      <point x="34" y="-231" type="line"/>
      <point x="177" y="-231"/>
      <point x="263" y="-160"/>
      <point x="263" y="-19" type="curve" smooth="yes"/>
      <point x="263" y="556" type="line" smooth="yes"/>
      <point x="263" y="608"/>
      <point x="294" y="639"/>
      <point x="334" y="639" type="curve" smooth="yes"/>
      <point x="353" y="639"/>
      <point x="373" y="632"/>
      <point x="395" y="615" type="curve"/>
      <point x="440" y="670" type="line"/>
      <point x="408" y="697"/>
      <point x="371" y="710"/>
      <point x="334" y="710" type="curve" smooth="yes"/>
      <point x="255" y="710"/>
      <point x="191" y="646"/>
      <point x="191" y="559" type="curve" smooth="yes"/>
      <point x="191" y="-17" type="line" smooth="yes"/>
      <point x="191" y="-125"/>
      <point x="143" y="-159"/>
      <point x="34" y="-159" type="curve"/>
    </contour>
  </outline>
</glyph>
<glyph name="fi" format="2">
  <advance width="509"/>
  <unicode hex="FB01"/>
  <anchor x="271" y="0" name="caret_1"/>
  <outline>
    <contour>
      <point x="96" y="0" type="line"/>
      <point x="180" y="0" type="line"/>
      <point x="180" y="427" type="line"/>
      <point x="391" y="427" type="line"/>
      <point x="391" y="493" type="line"/>
      <point x="180" y="493" type="line"/>
      <point x="180" y="525" type="line" smooth="yes"/>
      <point x="180" y="602"/>
      <point x="217" y="636"/>
      <point x="286" y="636" type="curve" smooth="yes"/>
      <point x="333" y="636"/>
      <point x="372" y="623"/>
      <point x="406" y="598" type="curve"/>
      <point x="446" y="658" type="line"/>
      <point x="401" y="688"/>
      <point x="351" y="705"/>
      <point x="282" y="705" type="curve" smooth="yes"/>
      <point x="181" y="705"/>
      <point x="96" y="648"/>
      <point x="96" y="532" type="curve" smooth="yes"/>
      <point x="96" y="493" type="line"/>
      <point x="10" y="493" type="line"/>
      <point x="10" y="427" type="line"/>
      <point x="96" y="427" type="line"/>
    </contour>
    <contour>
      <point x="361" y="0" type="line"/>
      <point x="445" y="0" type="line"/>
      <point x="445" y="493" type="line"/>
      <point x="361" y="493" type="line"/>
    </contour>
  </outline>
</glyph>
<glyph name="fl" format="2">
  <advance width="549"/>
  <unicode hex="FB02"/>
  <anchor x="265" y="0" name="caret_1"/>
  <outline>
    <contour>
      <point x="453" y="-8" type="curve" smooth="yes"/>
      <point x="471" y="-8"/>
      <point x="497" y="-5"/>
      <point x="525" y="5" type="curve"/>
      <point x="525" y="78" type="line"/>
      <point x="508" y="72"/>
      <point x="494" y="69"/>
      <point x="482" y="69" type="curve" smooth="yes"/>
      <point x="453" y="69"/>
      <point x="439" y="87"/>
      <point x="439" y="123" type="curve" smooth="yes"/>
      <point x="439" y="655" type="line"/>
      <point x="389" y="688"/>
      <point x="342" y="705"/>
      <point x="274" y="705" type="curve" smooth="yes"/>
      <point x="176" y="705"/>
      <point x="93" y="647"/>
      <point x="93" y="532" type="curve" smooth="yes"/>
      <point x="93" y="493" type="line"/>
      <point x="10" y="493" type="line"/>
      <point x="10" y="427" type="line"/>
      <point x="93" y="427" type="line"/>
      <point x="93" y="0" type="line"/>
      <point x="177" y="0" type="line"/>
      <point x="177" y="427" type="line"/>
      <point x="277" y="427" type="line"/>
      <point x="277" y="493" type="line"/>
      <point x="177" y="493" type="line"/>
      <point x="177" y="531" type="line" smooth="yes"/>
      <point x="177" y="601"/>
      <point x="212" y="636"/>
      <point x="279" y="636" type="curve" smooth="yes"/>
      <point x="306" y="636"/>
      <point x="330" y="629"/>
      <point x="354" y="615" type="curve"/>
      <point x="354" y="109" type="line" smooth="yes"/>
      <point x="354" y="28"/>
      <point x="395" y="-8"/>
    </contour>
  </outline>
</glyph>
<glyph name="brevecomb.case" format="2">
  <advance width="402"/>
  <anchor x="201" y="697" name="_top"/>
  <anchor x="201" y="867" name="top"/>
  <outline>
    <contour>
      <point x="201" y="740" type="curve" smooth="yes"/>
      <point x="301" y="740"/>
      <point x="353" y="784"/>
      <point x="353" y="871" type="curve"/>
      <point x="293" y="871" type="line"/>
      <point x="293" y="819"/>
      <point x="257" y="791"/>
      <point x="201" y="791" type="curve" smooth="yes"/>
      <point x="146" y="791"/>
      <point x="110" y="818"/>
      <point x="110" y="871" type="curve"/>
      <point x="49" y="871" type="line"/>
      <point x="49" y="787"/>
      <point x="98" y="740"/>
    </contour>
  </outline>
</glyph>
<glyph name="brevecomb_acutecomb" format="2">
  <advance width="402"/>
  <guideline x="390" y="847" angle="0" name=""/>
  <guideline x="428" y="784" angle="0" name=""/>
  <anchor x="201" y="493" name="_top"/>
  <anchor x="201" y="823" name="top"/>
  <outline>
    <contour>
      <point x="201" y="556" type="curve" smooth="yes"/>
      <point x="301" y="556"/>
      <point x="353" y="600"/>
      <point x="353" y="697" type="curve"/>
      <point x="298" y="697" type="line"/>
      <point x="298" y="634"/>
      <point x="263" y="606"/>
      <point x="201" y="606" type="curve" smooth="yes"/>
      <point x="141" y="606"/>
      <point x="104" y="633"/>
      <point x="104" y="697" type="curve"/>
      <point x="49" y="697" type="line"/>
      <point x="49" y="602"/>
      <point x="98" y="556"/>
    </contour>
    <contour>
      <point x="166" y="693" type="line"/>
      <point x="218" y="693" type="line"/>
      <point x="303" y="823" type="line"/>
      <point x="235" y="823" type="line"/>
    </contour>
  </outline>
</glyph>
<glyph name="brevecomb_hookabovecomb.case" format="2">
  <advance width="402"/>
  <guideline x="428" y="784" angle="0" name=""/>
  <guideline x="340" y="981" angle="0" name=""/>
  <guideline x="256" y="1000" angle="0" name=""/>
  <anchor x="201" y="697" name="_top"/>
  <anchor x="201" y="1012" name="top"/>
  <outline>
    <contour>
      <point x="201" y="740" type="curve" smooth="yes"/>
      <point x="301" y="740"/>
      <point x="353" y="784"/>
      <point x="353" y="871" type="curve"/>
      <point x="298" y="871" type="line"/>
      <point x="298" y="819"/>
      <point x="262" y="791"/>
      <point x="201" y="791" type="curve" smooth="yes"/>
      <point x="141" y="791"/>
      <point x="104" y="818"/>
      <point x="104" y="871" type="curve"/>
      <point x="49" y="871" type="line"/>
      <point x="49" y="787"/>
      <point x="98" y="740"/>
    </contour>
    <contour>
      <point x="177" y="842" type="line"/>
      <point x="245" y="850"/>
      <point x="284" y="871"/>
      <point x="284" y="916" type="curve" smooth="yes"/>
      <point x="284" y="965"/>
      <point x="233" y="993"/>
      <point x="151" y="993" type="curve" smooth="yes"/>
      <point x="136" y="993" type="line"/>
      <point x="136" y="956" type="line"/>
      <point x="151" y="956" type="line" smooth="yes"/>
      <point x="192" y="956"/>
      <point x="233" y="943"/>
      <point x="233" y="912" type="curve" smooth="yes"/>
      <point x="233" y="884"/>
      <point x="205" y="873"/>
      <point x="167" y="869" type="curve"/>
    </contour>
  </outline>
</glyph>
<glyph name="brevecomb_hookabovecomb" format="2">
  <advance width="402"/>
  <guideline x="428" y="784" angle="0" name=""/>
  <anchor x="201" y="493" name="_top"/>
  <anchor x="201" y="858" name="top"/>
  <outline>
    <contour>
      <point x="201" y="556" type="curve" smooth="yes"/>
      <point x="301" y="556"/>
      <point x="353" y="600"/>
      <point x="353" y="697" type="curve"/>
      <point x="298" y="697" type="line"/>
      <point x="298" y="634"/>
      <point x="263" y="606"/>
      <point x="201" y="606" type="curve" smooth="yes"/>
      <point x="141" y="606"/>
      <point x="104" y="633"/>
      <point x="104" y="697" type="curve"/>
      <point x="49" y="697" type="line"/>
      <point x="49" y="602"/>
      <point x="98" y="556"/>
    </contour>
    <contour>
      <point x="177" y="677" type="line"/>
      <point x="230" y="685"/>
      <point x="284" y="700"/>
      <point x="284" y="761" type="curve" smooth="yes"/>
      <point x="284" y="815"/>
      <point x="234" y="848"/>
      <point x="151" y="848" type="curve" smooth="yes"/>
      <point x="136" y="848" type="line"/>
      <point x="136" y="802" type="line"/>
      <point x="151" y="802" type="line" smooth="yes"/>
      <point x="191" y="802"/>
      <point x="233" y="790"/>
      <point x="233" y="755" type="curve" smooth="yes"/>
      <point x="233" y="729"/>
      <point x="212" y="715"/>
      <point x="167" y="710" type="curve"/>
    </contour>
  </outline>
</glyph>
<glyph name="caroncomb.alt" format="2">
  <advance width="244"/>
  <anchor x="122" y="493" name="_topright"/>
  <outline>
    <contour>
      <point x="49" y="484" type="line"/>
      <point x="100" y="484" type="line"/>
      <point x="195" y="697" type="line"/>
      <point x="106" y="697" type="line"/>
    </contour>
  </outline>
</glyph>
<glyph name="circumflexcomb.case" format="2">
  <advance width="400"/>
  <guideline x="235" y="761" angle="0" name=""/>
  <anchor x="200" y="697" name="_top"/>
  <anchor x="200" y="897" name="top"/>
  <outline>
    <contour>
      <point x="49" y="751" type="line"/>
      <point x="120" y="751" type="line"/>
      <point x="200" y="840" type="line"/>
      <point x="281" y="751" type="line"/>
      <point x="351" y="751" type="line"/>
      <point x="200" y="913" type="line"/>
    </contour>
  </outline>
</glyph>
<glyph name="circumflexcomb_acutecomb" format="2">
  <advance width="467"/>
  <guideline x="428" y="784" angle="0" name=""/>
  <anchor x="200" y="493" name="_top"/>
  <anchor x="200" y="784" name="top"/>
  <outline>
    <contour>
      <point x="49" y="547" type="line"/>
      <point x="119" y="547" type="line"/>
      <point x="200" y="625" type="line"/>
      <point x="281" y="547" type="line"/>
      <point x="351" y="547" type="line"/>
      <point x="200" y="699" type="line"/>
    </contour>
    <contour>
      <point x="276" y="650" type="line"/>
      <point x="329" y="650" type="line"/>
      <point x="418" y="784" type="line"/>
      <point x="348" y="784" type="line"/>
    </contour>
  </outline>
</glyph>
<glyph name="circumflexcomb_gravecomb.case" format="2">
  <advance width="426"/>
  <guideline x="428" y="784" angle="0" name=""/>
  <guideline x="212" y="748" angle="0" name=""/>
  <anchor x="200" y="697" name="_top"/>
  <anchor x="205" y="982" name="top"/>
  <outline>
    <contour>
      <point x="49" y="744" type="line"/>
      <point x="120" y="744" type="line"/>
      <point x="200" y="823" type="line"/>
      <point x="281" y="744" type="line"/>
      <point x="351" y="744" type="line"/>
      <point x="200" y="886" type="line"/>
    </contour>
    <contour>
      <point x="324" y="847" type="line"/>
      <point x="377" y="847" type="line"/>
      <point x="305" y="982" type="line"/>
      <point x="235" y="982" type="line"/>
    </contour>
  </outline>
</glyph>
<glyph name="circumflexcomb_gravecomb" format="2">
  <advance width="426"/>
  <guideline x="428" y="784" angle="0" name=""/>
  <anchor x="200" y="493" name="_top"/>
  <anchor x="199" y="784" name="top"/>
  <outline>
    <contour>
      <point x="49" y="547" type="line"/>
      <point x="120" y="547" type="line"/>
      <point x="200" y="625" type="line"/>
      <point x="281" y="547" type="line"/>
      <point x="351" y="547" type="line"/>
      <point x="200" y="699" type="line"/>
    </contour>
    <contour>
      <point x="324" y="650" type="line"/>
      <point x="377" y="650" type="line"/>
      <point x="305" y="784" type="line"/>
      <point x="235" y="784" type="line"/>
    </contour>
  </outline>
</glyph>
<glyph name="circumflexcomb_hookabovecomb.case" format="2">
  <advance width="459"/>
  <guideline x="428" y="784" angle="0" name=""/>
  <guideline x="212" y="748" angle="0" name=""/>
  <anchor x="200" y="697" name="_top"/>
  <anchor x="230" y="990" name="top"/>
  <outline>
    <contour>
      <point x="49" y="744" type="line"/>
      <point x="120" y="744" type="line"/>
      <point x="200" y="823" type="line"/>
      <point x="281" y="744" type="line"/>
      <point x="351" y="744" type="line"/>
      <point x="200" y="886" type="line"/>
    </contour>
    <contour>
      <point x="303" y="820" type="line"/>
      <point x="359" y="829"/>
      <point x="410" y="843"/>
      <point x="410" y="903" type="curve" smooth="yes"/>
      <point x="410" y="957"/>
      <point x="361" y="990"/>
      <point x="277" y="990" type="curve" smooth="yes"/>
      <point x="262" y="990" type="line"/>
      <point x="262" y="944" type="line"/>
      <point x="277" y="944" type="line" smooth="yes"/>
      <point x="319" y="944"/>
      <point x="360" y="932"/>
      <point x="360" y="897" type="curve" smooth="yes"/>
      <point x="360" y="871"/>
      <point x="337" y="859"/>
      <point x="294" y="852" type="curve"/>
    </contour>
  </outline>
</glyph>
<glyph name="circumflexcomb_tildecomb" format="2">
  <advance width="400"/>
  <guideline x="341" y="784" angle="0" name=""/>
  <anchor x="200" y="493" name="_top"/>
  <anchor x="201" y="799" name="top"/>
  <outline>
    <contour>
      <point x="49" y="547" type="line"/>
      <point x="119" y="547" type="line"/>
      <point x="200" y="625" type="line"/>
      <point x="282" y="547" type="line"/>
      <point x="351" y="547" type="line"/>
      <point x="200" y="699" type="line"/>
    </contour>
    <contour>
      <point x="266" y="708" type="curve" smooth="yes"/>
      <point x="317" y="708"/>
      <point x="345" y="741"/>
      <point x="350" y="789" type="curve"/>
      <point x="300" y="791" type="line"/>
      <point x="295" y="767"/>
      <point x="283" y="758"/>
      <point x="260" y="758" type="curve" smooth="yes"/>
      <point x="221" y="758"/>
      <point x="202" y="799"/>
      <point x="138" y="799" type="curve" smooth="yes"/>
      <point x="86" y="799"/>
      <point x="55" y="765"/>
      <point x="50" y="717" type="curve"/>
      <point x="98" y="715" type="line"/>
      <point x="102" y="735"/>
      <point x="113" y="752"/>
      <point x="143" y="752" type="curve" smooth="yes"/>
      <point x="194" y="752"/>
      <point x="200" y="708"/>
    </contour>
  </outline>
</glyph>
<glyph name="dieresistonos.ss03" format="2">
  <advance width="486"/>
  <anchor x="243" y="493" name="_top"/>
  <outline>
    <contour>
      <point x="258" y="597" type="line"/>
      <point x="328" y="797" type="line"/>
      <point x="262" y="810" type="line"/>
      <point x="215" y="607" type="line"/>
    </contour>
    <contour>
      <point x="103" y="579" type="curve" smooth="yes"/>
      <point x="133" y="579"/>
      <point x="158" y="604"/>
      <point x="158" y="634" type="curve" smooth="yes"/>
      <point x="158" y="664"/>
      <point x="133" y="688"/>
      <point x="103" y="688" type="curve" smooth="yes"/>
      <point x="73" y="688"/>
      <point x="49" y="664"/>
      <point x="49" y="634" type="curve" smooth="yes"/>
      <point x="49" y="604"/>
      <point x="73" y="579"/>
    </contour>
    <contour>
      <point x="382" y="579" type="curve" smooth="yes"/>
      <point x="412" y="579"/>
      <point x="437" y="604"/>
      <point x="437" y="634" type="curve" smooth="yes"/>
      <point x="437" y="664"/>
      <point x="413" y="688"/>
      <point x="382" y="688" type="curve" smooth="yes"/>
      <point x="352" y="688"/>
      <point x="328" y="664"/>
      <point x="328" y="634" type="curve" smooth="yes"/>
      <point x="328" y="604"/>
      <point x="353" y="579"/>
    </contour>
  </outline>
</glyph>
<glyph name="divide.ss03" format="2">
  <advance width="560"/>
  <outline>
    <contour>
      <point x="65" y="268" type="line"/>
      <point x="493" y="268" type="line"/>
      <point x="493" y="332" type="line"/>
      <point x="65" y="332" type="line"/>
    </contour>
    <contour>
      <point x="279" y="49" type="curve" smooth="yes"/>
      <point x="309" y="49"/>
      <point x="333" y="73"/>
      <point x="333" y="104" type="curve" smooth="yes"/>
      <point x="333" y="134"/>
      <point x="309" y="158"/>
      <point x="279" y="158" type="curve" smooth="yes"/>
      <point x="249" y="158"/>
      <point x="224" y="134"/>
      <point x="224" y="104" type="curve" smooth="yes"/>
      <point x="224" y="74"/>
      <point x="249" y="49"/>
    </contour>
    <contour>
      <point x="279" y="441" type="curve" smooth="yes"/>
      <point x="309" y="441"/>
      <point x="333" y="466"/>
      <point x="333" y="496" type="curve" smooth="yes"/>
      <point x="333" y="526"/>
      <point x="309" y="550"/>
      <point x="279" y="550" type="curve" smooth="yes"/>
      <point x="249" y="550"/>
      <point x="224" y="526"/>
      <point x="224" y="496" type="curve" smooth="yes"/>
      <point x="224" y="466"/>
      <point x="249" y="441"/>
    </contour>
  </outline>
</glyph>
<glyph name="dotbelowcomb.ss03" format="2">
  <advance width="207"/>
  <anchor x="103" y="0" name="_bottom"/>
  <anchor x="104" y="-184" name="bottom"/>
  <outline>
    <contour>
      <point x="103" y="-184" type="curve" smooth="yes"/>
      <point x="133" y="-184"/>
      <point x="158" y="-159"/>
      <point x="158" y="-129" type="curve" smooth="yes"/>
      <point x="158" y="-99"/>
      <point x="133" y="-74"/>
      <point x="103" y="-74" type="curve" smooth="yes"/>
      <point x="73" y="-74"/>
      <point x="49" y="-99"/>
      <point x="49" y="-129" type="curve" smooth="yes"/>
      <point x="49" y="-159"/>
      <point x="74" y="-184"/>
    </contour>
  </outline>
</glyph>
<glyph name="eight.dnom" format="2">
  <advance width="369"/>
  <outline>
    <contour>
      <point x="185" y="-5" type="curve" smooth="yes"/>
      <point x="261" y="-5"/>
      <point x="333" y="37"/>
      <point x="333" y="122" type="curve" smooth="yes"/>
      <point x="333" y="170"/>
      <point x="309" y="208"/>
      <point x="265" y="227" type="curve"/>
      <point x="293" y="242"/>
      <point x="311" y="269"/>
      <point x="311" y="308" type="curve" smooth="yes"/>
      <point x="311" y="379"/>
      <point x="253" y="423"/>
      <point x="185" y="423" type="curve" smooth="yes"/>
      <point x="120" y="423"/>
      <point x="57" y="381"/>
      <point x="57" y="310" type="curve" smooth="yes"/>
      <point x="57" y="270"/>
      <point x="76" y="243"/>
      <point x="104" y="227" type="curve"/>
      <point x="60" y="208"/>
      <point x="36" y="169"/>
      <point x="36" y="122" type="curve" smooth="yes"/>
      <point x="36" y="37"/>
      <point x="109" y="-5"/>
    </contour>
    <contour>
      <point x="185" y="50" type="curve" smooth="yes"/>
      <point x="136" y="50"/>
      <point x="94" y="77"/>
      <point x="94" y="127" type="curve" smooth="yes"/>
      <point x="94" y="175"/>
      <point x="132" y="204"/>
      <point x="185" y="204" type="curve" smooth="yes"/>
      <point x="237" y="204"/>
      <point x="274" y="174"/>
      <point x="274" y="127" type="curve" smooth="yes"/>
      <point x="274" y="77"/>
      <point x="234" y="50"/>
    </contour>
    <contour>
      <point x="185" y="244" type="curve" smooth="yes"/>
      <point x="145" y="244"/>
      <point x="116" y="268"/>
      <point x="116" y="306" type="curve" smooth="yes"/>
      <point x="116" y="344"/>
      <point x="147" y="368"/>
      <point x="185" y="368" type="curve" smooth="yes"/>
      <point x="226" y="368"/>
      <point x="254" y="342"/>
      <point x="254" y="304" type="curve" smooth="yes"/>
      <point x="254" y="268"/>
      <point x="225" y="244"/>
    </contour>
  </outline>
</glyph>
<glyph name="eight.lf" format="2">
  <advance width="610"/>
  <outline>
    <contour>
      <point x="305" y="-8" type="curve" smooth="yes"/>
      <point x="430" y="-8"/>
      <point x="547" y="62"/>
      <point x="547" y="201" type="curve" smooth="yes"/>
      <point x="547" y="283"/>
      <point x="503" y="349"/>
      <point x="426" y="379" type="curve"/>
      <point x="478" y="404"/>
      <point x="510" y="452"/>
      <point x="510" y="517" type="curve" smooth="yes"/>
      <point x="510" y="632"/>
      <point x="418" y="705"/>
      <point x="306" y="705" type="curve" smooth="yes"/>
      <point x="202" y="705"/>
      <point x="100" y="637"/>
      <point x="100" y="520" type="curve" smooth="yes"/>
      <point x="100" y="454"/>
      <point x="133" y="404"/>
      <point x="184" y="379" type="curve"/>
      <point x="107" y="349"/>
      <point x="63" y="284"/>
      <point x="63" y="201" type="curve" smooth="yes"/>
      <point x="63" y="62"/>
      <point x="181" y="-8"/>
    </contour>
    <contour>
      <point x="305" y="72" type="curve" smooth="yes"/>
      <point x="221" y="72"/>
      <point x="147" y="118"/>
      <point x="147" y="209" type="curve" smooth="yes"/>
      <point x="147" y="293"/>
      <point x="213" y="345"/>
      <point x="305" y="345" type="curve" smooth="yes"/>
      <point x="397" y="345"/>
      <point x="462" y="292"/>
      <point x="462" y="209" type="curve" smooth="yes"/>
      <point x="462" y="118"/>
      <point x="390" y="72"/>
    </contour>
    <contour>
      <point x="307" y="403" type="curve" smooth="yes"/>
      <point x="235" y="403"/>
      <point x="185" y="447"/>
      <point x="185" y="515" type="curve" smooth="yes"/>
      <point x="185" y="584"/>
      <point x="240" y="625"/>
      <point x="306" y="625" type="curve" smooth="yes"/>
      <point x="379" y="625"/>
      <point x="426" y="579"/>
      <point x="426" y="511" type="curve" smooth="yes"/>
      <point x="426" y="447"/>
      <point x="376" y="403"/>
    </contour>
  </outline>
</glyph>
<glyph name="eight.numr" format="2">
  <advance width="369"/>
  <outline>
    <contour>
      <point x="185" y="274" type="curve" smooth="yes"/>
      <point x="261" y="274"/>
      <point x="333" y="316"/>
      <point x="333" y="400" type="curve" smooth="yes"/>
      <point x="333" y="448"/>
      <point x="309" y="487"/>
      <point x="265" y="506" type="curve"/>
      <point x="297" y="523"/>
      <point x="311" y="553"/>
      <point x="311" y="587" type="curve" smooth="yes"/>
      <point x="311" y="658"/>
      <point x="253" y="702"/>
      <point x="185" y="702" type="curve" smooth="yes"/>
      <point x="120" y="702"/>
      <point x="57" y="660"/>
      <point x="57" y="589" type="curve" smooth="yes"/>
      <point x="57" y="549"/>
      <point x="76" y="522"/>
      <point x="104" y="506" type="curve"/>
      <point x="60" y="487"/>
      <point x="36" y="448"/>
      <point x="36" y="400" type="curve" smooth="yes"/>
      <point x="36" y="316"/>
      <point x="109" y="274"/>
    </contour>
    <contour>
      <point x="185" y="329" type="curve" smooth="yes"/>
      <point x="136" y="329"/>
      <point x="94" y="356"/>
      <point x="94" y="406" type="curve" smooth="yes"/>
      <point x="94" y="454"/>
      <point x="132" y="483"/>
      <point x="185" y="483" type="curve" smooth="yes"/>
      <point x="237" y="483"/>
      <point x="274" y="453"/>
      <point x="274" y="406" type="curve" smooth="yes"/>
      <point x="274" y="356"/>
      <point x="234" y="329"/>
    </contour>
    <contour>
      <point x="185" y="523" type="curve" smooth="yes"/>
      <point x="145" y="523"/>
      <point x="116" y="547"/>
      <point x="116" y="585" type="curve" smooth="yes"/>
      <point x="116" y="623"/>
      <point x="147" y="647"/>
      <point x="185" y="647" type="curve" smooth="yes"/>
      <point x="226" y="647"/>
      <point x="254" y="621"/>
      <point x="254" y="583" type="curve" smooth="yes"/>
      <point x="254" y="547"/>
      <point x="225" y="523"/>
    </contour>
  </outline>
</glyph>
<glyph name="f_f" format="2">
  <advance width="597"/>
  <anchor x="274" y="0" name="caret_1"/>
  <outline>
    <contour>
      <point x="96" y="0" type="line"/>
      <point x="180" y="0" type="line"/>
      <point x="180" y="427" type="line"/>
      <point x="366" y="427" type="line"/>
      <point x="366" y="0" type="line"/>
      <point x="451" y="0" type="line"/>
      <point x="451" y="427" type="line"/>
      <point x="593" y="427" type="line"/>
      <point x="593" y="493" type="line"/>
      <point x="451" y="493" type="line"/>
      <point x="451" y="557" type="line" smooth="yes"/>
      <point x="451" y="606"/>
      <point x="473" y="634"/>
      <point x="525" y="634" type="curve" smooth="yes"/>
      <point x="539" y="634"/>
      <point x="554" y="630"/>
      <point x="573" y="621" type="curve"/>
      <point x="601" y="685" type="line"/>
      <point x="573" y="699"/>
      <point x="548" y="705"/>
      <point x="517" y="705" type="curve" smooth="yes"/>
      <point x="474" y="705"/>
      <point x="437" y="697"/>
      <point x="410" y="674" type="curve"/>
      <point x="373" y="696"/>
      <point x="333" y="705"/>
      <point x="290" y="705" type="curve" smooth="yes"/>
      <point x="183" y="705"/>
      <point x="96" y="641"/>
      <point x="96" y="535" type="curve" smooth="yes"/>
      <point x="96" y="493" type="line"/>
      <point x="10" y="493" type="line"/>
      <point x="10" y="427" type="line"/>
      <point x="96" y="427" type="line"/>
    </contour>
    <contour>
      <point x="180" y="493" type="line"/>
      <point x="180" y="533" type="line" smooth="yes"/>
      <point x="180" y="595"/>
      <point x="220" y="636"/>
      <point x="294" y="636" type="curve" smooth="yes"/>
      <point x="326" y="636"/>
      <point x="355" y="629"/>
      <point x="380" y="615" type="curve"/>
      <point x="371" y="603"/>
      <point x="367" y="586"/>
      <point x="367" y="566" type="curve" smooth="yes"/>
      <point x="367" y="493" type="line"/>
    </contour>
  </outline>
</glyph>
<glyph name="f_f_l" format="2">
  <advance width="831"/>
  <anchor x="274" y="0" name="caret_1"/>
  <anchor x="544" y="0" name="caret_2"/>
  <outline>
    <contour>
      <point x="736" y="-8" type="curve" smooth="yes"/>
      <point x="757" y="-8"/>
      <point x="785" y="-3"/>
      <point x="807" y="5" type="curve"/>
      <point x="807" y="78" type="line"/>
      <point x="790" y="72"/>
      <point x="776" y="69"/>
      <point x="764" y="69" type="curve" smooth="yes"/>
      <point x="735" y="69"/>
      <point x="721" y="87"/>
      <point x="721" y="128" type="curve" smooth="yes"/>
      <point x="721" y="655" type="line"/>
      <point x="670" y="688"/>
      <point x="622" y="705"/>
      <point x="551" y="705" type="curve" smooth="yes"/>
      <point x="504" y="705"/>
      <point x="458" y="693"/>
      <point x="425" y="667" type="curve"/>
      <point x="386" y="693"/>
      <point x="339" y="705"/>
      <point x="290" y="705" type="curve" smooth="yes"/>
      <point x="183" y="705"/>
      <point x="96" y="641"/>
      <point x="96" y="535" type="curve" smooth="yes"/>
      <point x="96" y="493" type="line"/>
      <point x="10" y="493" type="line"/>
      <point x="10" y="427" type="line"/>
      <point x="96" y="427" type="line"/>
      <point x="96" y="0" type="line"/>
      <point x="180" y="0" type="line"/>
      <point x="180" y="427" type="line"/>
      <point x="366" y="427" type="line"/>
      <point x="366" y="0" type="line"/>
      <point x="450" y="0" type="line"/>
      <point x="450" y="427" type="line"/>
      <point x="556" y="427" type="line"/>
      <point x="556" y="493" type="line"/>
      <point x="450" y="493" type="line"/>
      <point x="450" y="531" type="line" smooth="yes"/>
      <point x="450" y="602"/>
      <point x="486" y="636"/>
      <point x="555" y="636" type="curve" smooth="yes"/>
      <point x="587" y="636"/>
      <point x="612" y="629"/>
      <point x="636" y="616" type="curve"/>
      <point x="636" y="109" type="line" smooth="yes"/>
      <point x="636" y="29"/>
      <point x="677" y="-8"/>
    </contour>
    <contour>
      <point x="180" y="493" type="line"/>
      <point x="180" y="528" type="line" smooth="yes"/>
      <point x="180" y="595"/>
      <point x="220" y="636"/>
      <point x="294" y="636" type="curve" smooth="yes"/>
      <point x="329" y="636"/>
      <point x="361" y="627"/>
      <point x="384" y="612" type="curve"/>
      <point x="374" y="591"/>
      <point x="366" y="566"/>
      <point x="366" y="532" type="curve" smooth="yes"/>
      <point x="366" y="493" type="line"/>
    </contour>
  </outline>
</glyph>
<glyph name="five.lf" format="2">
  <advance width="609"/>
  <outline>
    <contour>
      <point x="302" y="-8" type="curve" smooth="yes"/>
      <point x="444" y="-8"/>
      <point x="547" y="106"/>
      <point x="547" y="239" type="curve" smooth="yes"/>
      <point x="547" y="365"/>
      <point x="453" y="471"/>
      <point x="319" y="471" type="curve" smooth="yes"/>
      <point x="261" y="471"/>
      <point x="202" y="450"/>
      <point x="150" y="389" type="curve"/>
      <point x="174" y="384" type="line"/>
      <point x="223" y="654" type="line"/>
      <point x="178" y="618" type="line"/>
      <point x="515" y="618" type="line"/>
      <point x="515" y="697" type="line"/>
      <point x="147" y="697" type="line"/>
      <point x="82" y="336" type="line"/>
      <point x="165" y="313" type="line"/>
      <point x="199" y="363"/>
      <point x="248" y="391"/>
      <point x="307" y="391" type="curve" smooth="yes"/>
      <point x="404" y="391"/>
      <point x="458" y="323"/>
      <point x="458" y="239" type="curve" smooth="yes"/>
      <point x="458" y="152"/>
      <point x="400" y="73"/>
      <point x="301" y="73" type="curve" smooth="yes"/>
      <point x="214" y="73"/>
      <point x="156" y="133"/>
      <point x="143" y="210" type="curve"/>
      <point x="60" y="195" type="line"/>
      <point x="81" y="76"/>
      <point x="179" y="-8"/>
    </contour>
  </outline>
</glyph>
<glyph name="five.numr" format="2">
  <advance width="365"/>
  <outline>
    <contour>
      <point x="181" y="274" type="curve" smooth="yes"/>
      <point x="267" y="274"/>
      <point x="330" y="343"/>
      <point x="330" y="423" type="curve" smooth="yes"/>
      <point x="330" y="499"/>
      <point x="273" y="563"/>
      <point x="192" y="563" type="curve" smooth="yes"/>
      <point x="156" y="563"/>
      <point x="122" y="550"/>
      <point x="93" y="516" type="curve"/>
      <point x="111" y="512" type="line"/>
      <point x="139" y="667" type="line"/>
      <point x="108" y="643" type="line"/>
      <point x="312" y="643" type="line"/>
      <point x="312" y="697" type="line"/>
      <point x="86" y="697" type="line"/>
      <point x="47" y="479" type="line"/>
      <point x="103" y="464" type="line"/>
      <point x="123" y="494"/>
      <point x="152" y="508"/>
      <point x="183" y="508" type="curve" smooth="yes"/>
      <point x="239" y="508"/>
      <point x="269" y="470"/>
      <point x="269" y="423" type="curve" smooth="yes"/>
      <point x="269" y="375"/>
      <point x="238" y="330"/>
      <point x="181" y="330" type="curve" smooth="yes"/>
      <point x="130" y="330"/>
      <point x="98" y="366"/>
      <point x="92" y="407" type="curve"/>
      <point x="34" y="397" type="line"/>
      <point x="46" y="325"/>
      <point x="106" y="274"/>
    </contour>
  </outline>
</glyph>
<glyph name="four.dnom" format="2">
  <advance width="372"/>
  <outline>
    <contour>
      <point x="219" y="0" type="line"/>
      <point x="278" y="0" type="line"/>
      <point x="278" y="100" type="line"/>
      <point x="345" y="100" type="line"/>
      <point x="345" y="154" type="line"/>
      <point x="278" y="154" type="line"/>
      <point x="278" y="418" type="line"/>
      <point x="225" y="418" type="line"/>
      <point x="25" y="145" type="line"/>
      <point x="25" y="100" type="line"/>
      <point x="219" y="100" type="line"/>
    </contour>
    <contour>
      <point x="75" y="133" type="line"/>
      <point x="226" y="347" type="line"/>
      <point x="219" y="352" type="line"/>
      <point x="219" y="154" type="line"/>
      <point x="69" y="154" type="line"/>
    </contour>
  </outline>
</glyph>
<glyph name="g.ss02" format="2">
  <advance width="522"/>
  <guideline x="376" y="-204" angle="0" name=""/>
  <anchor x="267" y="-207" name="bottom"/>
  <anchor x="269" y="493" name="top"/>
  <outline>
    <contour>
      <point x="267" y="-212" type="curve" smooth="yes"/>
      <point x="414" y="-212"/>
      <point x="496" y="-157"/>
      <point x="496" y="-56" type="curve" smooth="yes"/>
      <point x="496" y="22"/>
      <point x="454" y="75"/>
      <point x="344" y="75" type="curve" smooth="yes"/>
      <point x="238" y="75" type="line" smooth="yes"/>
      <point x="182" y="75"/>
      <point x="135" y="89"/>
      <point x="134" y="125" type="curve" smooth="yes"/>
      <point x="133" y="152"/>
      <point x="152" y="175"/>
      <point x="175" y="189" type="curve"/>
      <point x="135" y="244" type="line"/>
      <point x="79" y="203"/>
      <point x="55" y="167"/>
      <point x="56" y="112" type="curve" smooth="yes"/>
      <point x="57" y="40"/>
      <point x="133" y="5"/>
      <point x="182" y="5" type="curve" smooth="yes"/>
      <point x="332" y="5" type="line" smooth="yes"/>
      <point x="397" y="5"/>
      <point x="415" y="-28"/>
      <point x="415" y="-66" type="curve" smooth="yes"/>
      <point x="415" y="-118"/>
      <point x="366" y="-147"/>
      <point x="268" y="-147" type="curve" smooth="yes"/>
      <point x="168" y="-147"/>
      <point x="121" y="-116"/>
      <point x="121" y="-57" type="curve" smooth="yes"/>
      <point x="121" y="-47" type="line"/>
      <point x="185" y="14" type="line"/>
      <point x="141" y="48" type="line"/>
      <point x="47" y="-22" type="line"/>
      <point x="43" y="-33"/>
      <point x="41" y="-47"/>
      <point x="41" y="-60" type="curve" smooth="yes"/>
      <point x="41" y="-170"/>
      <point x="145" y="-212"/>
    </contour>
    <contour>
      <point x="265" y="154" type="curve" smooth="yes"/>
      <point x="376" y="154"/>
      <point x="453" y="221"/>
      <point x="453" y="323" type="curve" smooth="yes"/>
      <point x="453" y="430"/>
      <point x="367" y="501"/>
      <point x="263" y="501" type="curve" smooth="yes"/>
      <point x="158" y="501"/>
      <point x="72" y="431"/>
      <point x="72" y="326" type="curve" smooth="yes"/>
      <point x="72" y="226"/>
      <point x="150" y="154"/>
    </contour>
    <contour>
      <point x="264" y="221" type="curve" smooth="yes"/>
      <point x="196" y="221"/>
      <point x="157" y="267"/>
      <point x="157" y="326" type="curve" smooth="yes"/>
      <point x="157" y="387"/>
      <point x="199" y="430"/>
      <point x="264" y="430" type="curve" smooth="yes"/>
      <point x="327" y="430"/>
      <point x="369" y="388"/>
      <point x="369" y="325" type="curve" smooth="yes"/>
      <point x="369" y="266"/>
      <point x="330" y="221"/>
    </contour>
    <contour>
      <point x="421" y="401" type="line"/>
      <point x="508" y="475" type="line"/>
      <point x="464" y="528" type="line"/>
      <point x="361" y="442" type="line"/>
    </contour>
  </outline>
</glyph>
<glyph name="nine.numr" format="2">
  <advance width="357"/>
  <outline>
    <contour>
      <point x="111" y="279" type="line"/>
      <point x="178" y="279" type="line"/>
      <point x="304" y="484" type="line" smooth="yes"/>
      <point x="318" y="507"/>
      <point x="326" y="534"/>
      <point x="326" y="561" type="curve" smooth="yes"/>
      <point x="326" y="642"/>
      <point x="259" y="702"/>
      <point x="178" y="702" type="curve" smooth="yes"/>
      <point x="97" y="702"/>
      <point x="30" y="642"/>
      <point x="30" y="560" type="curve" smooth="yes"/>
      <point x="30" y="483"/>
      <point x="91" y="421"/>
      <point x="170" y="421" type="curve" smooth="yes"/>
      <point x="187" y="421"/>
      <point x="207" y="426"/>
      <point x="224" y="436" type="curve"/>
      <point x="217" y="446" type="line"/>
    </contour>
    <contour>
      <point x="178" y="473" type="curve" smooth="yes"/>
      <point x="129" y="473"/>
      <point x="90" y="509"/>
      <point x="90" y="560" type="curve" smooth="yes"/>
      <point x="90" y="611"/>
      <point x="130" y="647"/>
      <point x="178" y="647" type="curve" smooth="yes"/>
      <point x="226" y="647"/>
      <point x="266" y="611"/>
      <point x="266" y="560" type="curve" smooth="yes"/>
      <point x="266" y="508"/>
      <point x="226" y="473"/>
    </contour>
  </outline>
</glyph>
<glyph name="one.dnom" format="2">
  <advance width="269"/>
  <outline>
    <contour>
      <point x="130" y="0" type="line"/>
      <point x="189" y="0" type="line"/>
      <point x="189" y="418" type="line"/>
      <point x="130" y="418" type="line"/>
      <point x="22" y="352" type="line"/>
      <point x="22" y="294" type="line"/>
      <point x="130" y="353" type="line"/>
    </contour>
  </outline>
</glyph>
<glyph name="one.lf" format="2">
  <advance width="389"/>
  <outline>
    <contour>
      <point x="223" y="0" type="line"/>
      <point x="308" y="0" type="line"/>
      <point x="308" y="697" type="line"/>
      <point x="223" y="697" type="line"/>
      <point x="42" y="586" type="line"/>
      <point x="42" y="509" type="line"/>
      <point x="223" y="610" type="line"/>
    </contour>
  </outline>
</glyph>
<glyph name="period.ss03" format="2">
  <advance width="240"/>
  <outline>
    <contour>
      <point x="121" y="-8" type="curve" smooth="yes"/>
      <point x="152" y="-8"/>
      <point x="176" y="17"/>
      <point x="176" y="47" type="curve" smooth="yes"/>
      <point x="176" y="78"/>
      <point x="151" y="101"/>
      <point x="121" y="101" type="curve" smooth="yes"/>
      <point x="91" y="101"/>
      <point x="67" y="77"/>
      <point x="67" y="47" type="curve" smooth="yes"/>
      <point x="67" y="17"/>
      <point x="92" y="-8"/>
    </contour>
  </outline>
</glyph>
<glyph name="question.ss03" format="2">
  <advance width="452"/>
  <outline>
    <contour>
      <point x="187" y="200" type="line"/>
      <point x="260" y="200" type="line"/>
      <point x="260" y="251" type="line" smooth="yes"/>
      <point x="260" y="374"/>
      <point x="434" y="350"/>
      <point x="434" y="524" type="curve" smooth="yes"/>
      <point x="434" y="648"/>
      <point x="345" y="705"/>
      <point x="227" y="705" type="curve" smooth="yes"/>
      <point x="102" y="705"/>
      <point x="13" y="633"/>
      <point x="12" y="503" type="curve"/>
      <point x="87" y="503" type="line"/>
      <point x="87" y="586"/>
      <point x="138" y="634"/>
      <point x="226" y="634" type="curve" smooth="yes"/>
      <point x="310" y="634"/>
      <point x="360" y="596"/>
      <point x="360" y="525" type="curve" smooth="yes"/>
      <point x="360" y="399"/>
      <point x="187" y="416"/>
      <point x="187" y="257" type="curve" smooth="yes"/>
    </contour>
    <contour>
      <point x="225" y="-8" type="curve" smooth="yes"/>
      <point x="256" y="-8"/>
      <point x="279" y="17"/>
      <point x="279" y="47" type="curve" smooth="yes"/>
      <point x="279" y="77"/>
      <point x="256" y="101"/>
      <point x="225" y="101" type="curve" smooth="yes"/>
      <point x="195" y="101"/>
      <point x="171" y="77"/>
      <point x="171" y="47" type="curve" smooth="yes"/>
      <point x="171" y="16"/>
      <point x="196" y="-8"/>
    </contour>
  </outline>
</glyph>
<glyph name="ringcomb.case" format="2">
  <advance width="302"/>
  <anchor x="151" y="553" name="_top"/>
  <anchor x="204" y="625" name="top"/>
  <outline>
    <contour>
      <point x="151" y="536" type="curve" smooth="yes"/>
      <point x="207" y="536"/>
      <point x="253" y="581"/>
      <point x="253" y="638" type="curve" smooth="yes"/>
      <point x="253" y="694"/>
      <point x="206" y="740"/>
      <point x="151" y="740" type="curve" smooth="yes"/>
      <point x="94" y="740"/>
      <point x="49" y="694"/>
      <point x="49" y="638" type="curve" smooth="yes"/>
      <point x="49" y="583"/>
      <point x="93" y="536"/>
    </contour>
    <contour>
      <point x="151" y="583" type="curve" smooth="yes"/>
      <point x="120" y="583"/>
      <point x="96" y="607"/>
      <point x="96" y="638" type="curve" smooth="yes"/>
      <point x="96" y="669"/>
      <point x="119" y="693"/>
      <point x="151" y="693" type="curve" smooth="yes"/>
      <point x="183" y="693"/>
      <point x="206" y="670"/>
      <point x="206" y="638" type="curve" smooth="yes"/>
      <point x="206" y="607"/>
      <point x="182" y="583"/>
    </contour>
  </outline>
</glyph>
<glyph name="semicolon.ss03" format="2">
  <advance width="240"/>
  <outline>
    <contour>
      <point x="10" y="-154" type="line"/>
      <point x="68" y="-154" type="line"/>
      <point x="198" y="130" type="line"/>
      <point x="104" y="130" type="line"/>
    </contour>
    <contour>
      <point x="144" y="351" type="curve" smooth="yes"/>
      <point x="174" y="351"/>
      <point x="198" y="376"/>
      <point x="198" y="406" type="curve" smooth="yes"/>
      <point x="198" y="436"/>
      <point x="174" y="460"/>
      <point x="144" y="460" type="curve" smooth="yes"/>
      <point x="113" y="460"/>
      <point x="90" y="437"/>
      <point x="90" y="406" type="curve" smooth="yes"/>
      <point x="90" y="376"/>
      <point x="114" y="351"/>
    </contour>
  </outline>
</glyph>
<glyph name="seven.dnom" format="2">
  <advance width="345"/>
  <outline>
    <contour>
      <point x="64" y="0" type="line"/>
      <point x="129" y="0" type="line"/>
      <point x="323" y="374" type="line"/>
      <point x="323" y="418" type="line"/>
      <point x="22" y="418" type="line"/>
      <point x="22" y="364" type="line"/>
      <point x="280" y="364" type="line"/>
      <point x="264" y="385" type="line"/>
    </contour>
  </outline>
</glyph>
<glyph name="slashshortcomb.case" format="2">
  <advance width="392"/>
  <anchor x="196" y="323" name="_center"/>
  <outline>
    <contour>
      <point x="50" y="163" type="line"/>
      <point x="343" y="396" type="line"/>
      <point x="343" y="483" type="line"/>
      <point x="49" y="251" type="line"/>
    </contour>
  </outline>
</glyph>
<glyph name="three.lf" format="2">
  <advance width="616"/>
  <outline>
    <contour>
      <point x="306" y="-8" type="curve" smooth="yes"/>
      <point x="453" y="-8"/>
      <point x="554" y="79"/>
      <point x="554" y="205" type="curve" smooth="yes"/>
      <point x="554" y="307"/>
      <point x="478" y="358"/>
      <point x="398" y="376" type="curve"/>
      <point x="463" y="397"/>
      <point x="516" y="443"/>
      <point x="516" y="522" type="curve" smooth="yes"/>
      <point x="516" y="629"/>
      <point x="429" y="705"/>
      <point x="308" y="705" type="curve" smooth="yes"/>
      <point x="180" y="705"/>
      <point x="89" y="624"/>
      <point x="89" y="508" type="curve"/>
      <point x="172" y="503" type="line"/>
      <point x="173" y="574"/>
      <point x="222" y="624"/>
      <point x="305" y="624" type="curve" smooth="yes"/>
      <point x="380" y="624"/>
      <point x="431" y="580"/>
      <point x="431" y="514" type="curve" smooth="yes"/>
      <point x="431" y="426"/>
      <point x="350" y="399"/>
      <point x="267" y="400" type="curve"/>
      <point x="267" y="333" type="line"/>
      <point x="379" y="333"/>
      <point x="470" y="304"/>
      <point x="470" y="206" type="curve" smooth="yes"/>
      <point x="470" y="125"/>
      <point x="408" y="74"/>
      <point x="309" y="74" type="curve" smooth="yes"/>
      <point x="207" y="74"/>
      <point x="141" y="129"/>
      <point x="141" y="217" type="curve"/>
      <point x="57" y="212" type="line"/>
      <point x="57" y="80"/>
      <point x="156" y="-8"/>
    </contour>
  </outline>
</glyph>
<glyph name="three.numr" format="2">
  <advance width="370"/>
  <outline>
    <contour>
      <point x="184" y="274" type="curve" smooth="yes"/>
      <point x="273" y="274"/>
      <point x="334" y="327"/>
      <point x="334" y="404" type="curve" smooth="yes"/>
      <point x="334" y="461"/>
      <point x="294" y="493"/>
      <point x="247" y="505" type="curve"/>
      <point x="282" y="518"/>
      <point x="312" y="545"/>
      <point x="312" y="591" type="curve" smooth="yes"/>
      <point x="312" y="656"/>
      <point x="258" y="702"/>
      <point x="185" y="702" type="curve" smooth="yes"/>
      <point x="107" y="702"/>
      <point x="51" y="652"/>
      <point x="51" y="582" type="curve"/>
      <point x="109" y="579" type="line"/>
      <point x="110" y="618"/>
      <point x="136" y="646"/>
      <point x="183" y="646" type="curve" smooth="yes"/>
      <point x="224" y="646"/>
      <point x="253" y="622"/>
      <point x="253" y="585" type="curve" smooth="yes"/>
      <point x="253" y="536"/>
      <point x="209" y="521"/>
      <point x="161" y="522" type="curve"/>
      <point x="161" y="475" type="line"/>
      <point x="227" y="475"/>
      <point x="276" y="458"/>
      <point x="276" y="404" type="curve" smooth="yes"/>
      <point x="276" y="359"/>
      <point x="242" y="330"/>
      <point x="185" y="330" type="curve" smooth="yes"/>
      <point x="129" y="330"/>
      <point x="91" y="361"/>
      <point x="91" y="411" type="curve"/>
      <point x="32" y="408" type="line"/>
      <point x="32" y="328"/>
      <point x="93" y="274"/>
    </contour>
  </outline>
</glyph>
<glyph name="two.dnom" format="2">
  <advance width="349"/>
  <outline>
    <contour>
      <point x="34" y="0" type="line"/>
      <point x="316" y="0" type="line"/>
      <point x="316" y="54" type="line"/>
      <point x="96" y="54" type="line"/>
      <point x="97" y="172"/>
      <point x="300" y="144"/>
      <point x="300" y="293" type="curve" smooth="yes"/>
      <point x="300" y="371"/>
      <point x="247" y="422"/>
      <point x="172" y="422" type="curve" smooth="yes"/>
      <point x="82" y="422"/>
      <point x="33" y="352"/>
      <point x="33" y="275" type="curve"/>
      <point x="90" y="271" type="line"/>
      <point x="92" y="323"/>
      <point x="116" y="365"/>
      <point x="170" y="365" type="curve" smooth="yes"/>
      <point x="217" y="365"/>
      <point x="241" y="335"/>
      <point x="241" y="291" type="curve" smooth="yes"/>
      <point x="241" y="189"/>
      <point x="34" y="212"/>
      <point x="34" y="47" type="curve"/>
    </contour>
  </outline>
</glyph>
<glyph name="two.lf" format="2">
  <advance width="582"/>
  <outline>
    <contour>
      <point x="58" y="0" type="line"/>
      <point x="524" y="0" type="line"/>
      <point x="524" y="79" type="line"/>
      <point x="148" y="79" type="line"/>
      <point x="148" y="310"/>
      <point x="496" y="266"/>
      <point x="496" y="492" type="curve" smooth="yes"/>
      <point x="496" y="620"/>
      <point x="410" y="704"/>
      <point x="285" y="704" type="curve" smooth="yes"/>
      <point x="138" y="704"/>
      <point x="58" y="592"/>
      <point x="58" y="462" type="curve"/>
      <point x="140" y="456" type="line"/>
      <point x="143" y="551"/>
      <point x="188" y="622"/>
      <point x="283" y="622" type="curve" smooth="yes"/>
      <point x="367" y="622"/>
      <point x="412" y="568"/>
      <point x="412" y="489" type="curve" smooth="yes"/>
      <point x="412" y="311"/>
      <point x="58" y="366"/>
      <point x="58" y="70" type="curve"/>
    </contour>
  </outline>
</glyph>
<glyph name="twodotenleader.ss03" format="2">
  <advance width="433"/>
  <outline>
    <contour>
      <point x="314" y="-8" type="curve" smooth="yes"/>
      <point x="345" y="-8"/>
      <point x="369" y="17"/>
      <point x="369" y="47" type="curve" smooth="yes"/>
      <point x="369" y="78"/>
      <point x="344" y="101"/>
      <point x="314" y="101" type="curve" smooth="yes"/>
      <point x="284" y="101"/>
      <point x="260" y="78"/>
      <point x="260" y="47" type="curve" smooth="yes"/>
      <point x="260" y="17"/>
      <point x="284" y="-8"/>
    </contour>
    <contour>
      <point x="121" y="-8" type="curve" smooth="yes"/>
      <point x="152" y="-8"/>
      <point x="176" y="17"/>
      <point x="176" y="47" type="curve" smooth="yes"/>
      <point x="176" y="78"/>
      <point x="152" y="101"/>
      <point x="121" y="101" type="curve" smooth="yes"/>
      <point x="91" y="101"/>
      <point x="67" y="77"/>
      <point x="67" y="47" type="curve" smooth="yes"/>
      <point x="67" y="17"/>
      <point x="92" y="-8"/>
    </contour>
  </outline>
</glyph>
<glyph name="zero.dnom" format="2">
  <advance width="356"/>
  <outline>
    <contour>
      <point x="179" y="-5" type="curve" smooth="yes"/>
      <point x="296" y="-5"/>
      <point x="317" y="112"/>
      <point x="317" y="210" type="curve" smooth="yes"/>
      <point x="317" y="307"/>
      <point x="296" y="424"/>
      <point x="178" y="424" type="curve" smooth="yes"/>
      <point x="57" y="424"/>
      <point x="39" y="302"/>
      <point x="39" y="211" type="curve" smooth="yes"/>
      <point x="39" y="117"/>
      <point x="58" y="-5"/>
    </contour>
    <contour>
      <point x="179" y="51" type="curve" smooth="yes"/>
      <point x="114" y="51"/>
      <point x="99" y="126"/>
      <point x="99" y="209" type="curve" smooth="yes"/>
      <point x="99" y="295"/>
      <point x="114" y="368"/>
      <point x="178" y="368" type="curve" smooth="yes"/>
      <point x="239" y="368"/>
      <point x="258" y="300"/>
      <point x="258" y="208" type="curve" smooth="yes"/>
      <point x="258" y="121"/>
      <point x="240" y="51"/>
    </contour>
  </outline>
</glyph>
